<svg xmlns="http://www.w3.org/2000/svg" xmlns:xlink="http://www.w3.org/1999/xlink" width="500" zoomAndPan="magnify" viewBox="0 0 375 374.999991" height="500" preserveAspectRatio="xMidYMid meet" version="1.0"><defs><g/><clipPath id="daa7a57a03"><path d="M 63.476562 37.511719 L 311.515625 37.511719 L 311.515625 236.996094 L 63.476562 236.996094 Z M 63.476562 37.511719 " clip-rule="nonzero"/></clipPath></defs><path fill="#f2e5b8" d="M 285.082031 117.660156 C 282.902344 116.808594 280.722656 115.953125 278.542969 115.097656 C 274.125 113.367188 269.683594 111.691406 264.984375 110.917969 C 262.5625 110.523438 260.085938 110.378906 257.683594 111.199219 C 256.132812 111.730469 254.722656 112.488281 253.542969 113.640625 C 253.394531 113.789062 253.25 113.941406 253.117188 114.105469 C 253.085938 114.144531 253.097656 114.230469 253.078125 114.390625 C 253.84375 114.390625 254.605469 114.351562 255.359375 114.394531 C 258.386719 114.578125 261.375 114.976562 264.226562 116.066406 C 266.027344 116.753906 267.492188 117.929688 268.789062 119.394531 C 268.542969 119.34375 268.289062 119.300781 268.046875 119.234375 C 263.042969 117.855469 257.972656 117.351562 252.8125 118.085938 C 252.535156 118.125 252.253906 118.164062 251.972656 118.160156 C 250.980469 118.144531 250.332031 118.628906 249.90625 119.496094 C 249.28125 120.78125 248.660156 122.066406 248.398438 123.625 C 248.808594 123.507812 249.132812 123.429688 249.445312 123.320312 C 253.824219 121.808594 258.320312 121.546875 262.863281 122.175781 C 265.390625 122.527344 267.730469 123.511719 269.894531 124.886719 C 270.09375 125.011719 270.277344 125.171875 270.632812 125.441406 C 269.824219 125.582031 269.175781 125.554688 268.542969 125.480469 C 263.355469 124.875 258.320312 125.726562 253.34375 127.082031 C 251.921875 127.46875 250.519531 127.9375 249.101562 128.335938 C 248.492188 128.507812 248.320312 128.871094 248.277344 129.484375 C 248.058594 132.695312 250.679688 134.992188 253.644531 135.21875 C 254.394531 135.273438 255.1875 135.183594 255.921875 135 C 258.304688 134.402344 260.640625 133.609375 263.042969 133.121094 C 266.566406 132.398438 270.164062 132.335938 273.75 132.550781 C 278.238281 132.816406 282.71875 133.222656 287.210938 133.410156 C 289.410156 133.5 291.636719 133.339844 293.832031 133.097656 C 296.457031 132.808594 296.859375 132.339844 297.453125 129.800781 C 298.011719 127.429688 298.152344 125.019531 298.074219 122.589844 C 298.0625 122.183594 297.914062 121.773438 297.785156 121.378906 C 297.703125 121.113281 297.558594 120.863281 297.417969 120.621094 C 294.167969 115.089844 291.101562 109.429688 287.054688 104.410156 C 285.066406 101.949219 282.527344 100.207031 279.511719 99.242188 C 276.339844 98.226562 273.054688 97.917969 269.738281 97.847656 C 267.75 97.808594 265.945312 98.453125 264.121094 99.101562 C 263.234375 99.417969 262.3125 99.640625 261.40625 99.914062 C 260.703125 100.121094 260.082031 99.941406 259.535156 99.492188 C 259.078125 99.105469 258.5625 98.984375 257.980469 98.972656 C 255.578125 98.921875 253.253906 98.511719 250.9375 97.820312 C 249.035156 97.253906 247.019531 97.027344 245.042969 96.753906 C 240.964844 96.183594 236.851562 96.03125 232.738281 96.058594 C 231.199219 96.070312 229.664062 96.355469 228.128906 96.511719 C 227.789062 96.546875 227.449219 96.589844 227.011719 96.636719 C 227.113281 95.535156 227.578125 94.695312 228.058594 93.859375 C 229.3125 91.671875 231.007812 89.851562 232.863281 88.171875 C 233.046875 88.007812 233.425781 87.53125 233.449219 87.414062 C 232.777344 87.144531 232.066406 87.207031 231.398438 87.339844 C 229.160156 87.792969 226.9375 88.28125 224.714844 88.785156 C 223.457031 89.070312 222.210938 89.417969 220.761719 89.789062 C 221.015625 89.417969 221.113281 89.195312 221.277344 89.046875 C 223.558594 86.960938 225.792969 84.804688 228.488281 83.25 C 230.496094 82.089844 232.597656 81.144531 234.878906 80.59375 C 237.339844 80.003906 239.691406 80.257812 241.984375 81.238281 C 244.261719 82.210938 246.320312 83.539062 248.175781 85.183594 C 250.78125 87.488281 253.390625 89.78125 256.027344 92.046875 C 256.714844 92.640625 257.488281 93.140625 258.257812 93.625 C 258.601562 93.84375 259.03125 93.960938 259.4375 94.046875 C 260.3125 94.234375 260.898438 93.867188 261.023438 92.972656 C 261.113281 92.363281 261.105469 91.703125 260.980469 91.101562 C 260.757812 89.988281 260.269531 88.976562 259.554688 88.082031 C 259.296875 87.765625 259.070312 87.417969 258.695312 86.890625 C 260.957031 87.046875 262.652344 87.855469 264.03125 89.351562 C 265.414062 90.847656 266.242188 92.582031 266.105469 94.679688 C 268.148438 94.355469 269.058594 93.292969 269.148438 91.359375 C 269.230469 89.605469 268.515625 88.308594 267.066406 87.378906 C 263.972656 85.402344 260.585938 84.1875 256.96875 83.640625 C 254.378906 83.25 252.089844 82.308594 249.964844 80.734375 C 246.964844 78.515625 244.046875 76.203125 241.328125 73.667969 C 238.535156 71.066406 235.351562 69.109375 231.878906 67.628906 C 228.84375 66.339844 225.75 65.183594 222.652344 64.054688 C 219.066406 62.746094 215.316406 62.175781 211.542969 61.714844 C 209.347656 61.445312 207.167969 61.074219 204.980469 60.746094 C 202.554688 60.375 200.121094 60.171875 197.542969 60.078125 C 197.714844 60.46875 197.832031 60.75 197.960938 61.027344 C 199.066406 63.410156 200.25 65.765625 201.253906 68.191406 C 201.800781 69.507812 202.421875 72.859375 202.226562 73.285156 C 202.074219 73.058594 195.628906 65.480469 192.671875 61.824219 C 189.367188 57.746094 185.320312 54.75 180.460938 52.773438 C 175.832031 50.894531 171.03125 49.855469 166.078125 49.320312 C 161.730469 48.851562 157.378906 48.859375 153.019531 48.859375 C 149.183594 48.859375 145.464844 48.34375 141.859375 47.027344 C 141.371094 46.847656 140.863281 46.738281 140.296875 46.574219 C 140.265625 47.039062 140.210938 47.417969 140.210938 47.796875 C 140.210938 52.390625 140.074219 57 141.53125 61.449219 C 142.765625 65.203125 144.453125 68.75 146.796875 71.9375 C 148.589844 74.371094 151 76.070312 153.847656 77.074219 C 157.378906 78.3125 160.675781 80.023438 163.972656 81.75 C 165.210938 82.402344 166.480469 83.007812 167.734375 83.640625 C 168.074219 83.808594 168.40625 83.992188 168.875 84.246094 C 168.511719 84.542969 168.238281 84.789062 167.941406 85.003906 C 165.4375 86.816406 162.847656 88.488281 160.1875 90.070312 C 156.765625 92.105469 153.609375 94.527344 151.0625 97.628906 C 149.957031 98.972656 149.046875 100.492188 148.152344 101.996094 C 146.785156 104.289062 145.570312 106.671875 144.808594 109.238281 C 144.273438 111.046875 143.902344 112.90625 143.496094 114.753906 C 142.871094 117.605469 142.546875 120.496094 142.398438 123.410156 C 142.378906 123.78125 142.398438 124.152344 142.398438 124.664062 C 143.957031 123.328125 145.402344 122.089844 146.976562 120.746094 C 146.976562 121.214844 146.507812 125.128906 146.085938 126.640625 C 144.917969 130.839844 143.886719 135.046875 144.019531 139.457031 C 144.105469 142.246094 144.617188 144.957031 145.429688 147.617188 C 145.527344 147.945312 145.6875 148.257812 145.910156 148.800781 C 147.300781 145.992188 148.328125 143.183594 150.449219 140.84375 C 150.65625 141.332031 150.820312 141.738281 151 142.132812 C 152.277344 144.9375 153.503906 147.769531 154.859375 150.539062 C 155.972656 152.824219 157.675781 154.726562 159.367188 156.605469 C 160.679688 158.0625 162.03125 159.503906 163.480469 160.828125 C 166.273438 163.363281 169.421875 165.324219 173.199219 166.019531 C 174.785156 166.3125 176.40625 166.457031 178.015625 166.515625 C 180.574219 166.609375 183.144531 166.507812 185.703125 166.605469 C 187.945312 166.695312 190.039062 167.402344 192.011719 168.472656 C 195.105469 170.152344 197.734375 172.402344 200.15625 174.917969 C 201.640625 176.457031 203.136719 177.980469 204.785156 179.667969 C 204.738281 179.257812 200.144531 168.558594 195.855469 164.660156 C 194.398438 163.339844 192.957031 162.003906 191.257812 160.992188 C 189.941406 160.210938 188.558594 159.628906 187.054688 159.371094 C 184.390625 158.90625 181.730469 158.433594 179.058594 158.023438 C 174.582031 157.339844 170.882812 155.152344 167.628906 152.136719 C 164.53125 149.261719 162.140625 145.859375 160.257812 142.085938 C 157.820312 137.210938 155.898438 132.140625 154.550781 126.855469 C 153.960938 124.558594 153.953125 122.207031 153.945312 119.851562 C 153.929688 115.867188 154.914062 112.082031 156.222656 108.359375 C 156.609375 107.269531 156.976562 106.167969 157.40625 105.09375 C 158.214844 103.074219 159.777344 101.796875 161.761719 100.878906 C 160.882812 103.675781 160.460938 106.484375 160.976562 109.375 C 161.089844 110.027344 161.179688 110.675781 161.324219 111.578125 C 162.054688 110.71875 162.644531 110.050781 163.207031 109.359375 C 165.929688 106.023438 169.039062 103.09375 172.476562 100.511719 C 175.394531 98.320312 178.726562 97.21875 182.28125 96.679688 C 183.023438 96.566406 184.5625 96.597656 184.582031 96.664062 C 184.421875 96.832031 182.65625 98.390625 181.964844 99.035156 C 176.59375 104.058594 172.90625 110.152344 170.496094 117.054688 C 169.496094 119.921875 169.582031 122.808594 170.679688 125.601562 C 171.144531 126.789062 171.953125 127.863281 172.71875 128.902344 C 174.347656 131.121094 176.152344 133.214844 178.6875 134.429688 C 180.128906 135.121094 181.679688 135.667969 183.246094 136.003906 C 186.535156 136.710938 189.851562 137.359375 193.1875 137.8125 C 196.207031 138.222656 199.265625 138.425781 202.316406 138.570312 C 206.597656 138.769531 210.464844 137.445312 214.066406 135.179688 C 216.488281 133.65625 220.902344 129.691406 221.035156 129.5 C 219.941406 129.371094 218.9375 129.234375 217.929688 129.140625 C 214.082031 128.769531 210.230469 128.460938 206.390625 128.039062 C 202.375 127.601562 198.375 127.042969 194.429688 126.152344 C 192.1875 125.644531 187.988281 122.460938 188.039062 122.367188 C 188.289062 122.320312 197.84375 121.773438 202.347656 121.285156 C 205.628906 120.929688 208.898438 120.457031 212.160156 119.964844 C 217.238281 119.203125 222.210938 117.957031 227.109375 116.4375 C 230.230469 115.472656 236.441406 112.414062 236.550781 112.167969 C 235.265625 112.28125 233.980469 112.375 232.703125 112.507812 C 229.09375 112.882812 225.460938 112.832031 221.855469 112.621094 C 219.523438 112.484375 217.222656 111.851562 214.898438 111.503906 C 212.429688 111.136719 210.167969 110.210938 207.972656 109.082031 C 207.261719 108.71875 206.59375 108.300781 205.886719 107.570312 C 206.433594 107.570312 206.765625 107.558594 207.09375 107.570312 C 211.023438 107.738281 214.957031 108.007812 218.890625 108.054688 C 222.578125 108.097656 226.285156 108.117188 229.949219 107.769531 C 234.5625 107.332031 239.105469 106.367188 243.507812 104.835938 C 245.664062 104.085938 247.824219 103.355469 249.863281 102.328125 C 251.753906 101.378906 253.800781 101.082031 255.871094 100.898438 C 256.816406 100.816406 257.757812 100.703125 258.707031 100.636719 C 259 100.613281 259.300781 100.683594 259.824219 100.734375 C 257.390625 102.066406 255.054688 103.117188 252.984375 104.550781 C 250.925781 105.972656 248.882812 107.484375 247.214844 109.5 C 248.65625 109.132812 250.117188 108.820312 251.535156 108.375 C 252.570312 108.050781 253.574219 107.601562 254.546875 107.125 C 256.738281 106.054688 258.996094 105.695312 261.402344 106.210938 C 264.152344 106.792969 266.863281 107.511719 269.496094 108.5 C 271.996094 109.441406 274.515625 110.324219 276.957031 111.390625 C 279.980469 112.714844 285.117188 117.59375 285.082031 117.660156 Z M 148.378906 55.710938 C 148.507812 55.691406 148.636719 55.652344 148.769531 55.652344 C 155.363281 55.527344 161.890625 55.9375 168.234375 57.972656 C 172.238281 59.257812 175.882812 61.140625 178.796875 64.242188 C 179.949219 65.464844 181.039062 66.75 182.144531 68.019531 C 182.425781 68.34375 182.671875 68.621094 183.160156 68.664062 C 184.453125 68.78125 185.738281 68.949219 187.027344 69.121094 C 188.324219 69.292969 189.609375 69.585938 190.695312 70.328125 C 192.03125 71.238281 193.296875 72.238281 194.582031 73.214844 C 194.84375 73.414062 195.046875 73.691406 195.425781 74.089844 C 194.351562 74 193.519531 73.960938 192.6875 73.851562 C 188.953125 73.363281 185.394531 73.988281 182.054688 75.664062 C 179.046875 77.179688 176.121094 78.851562 173.164062 80.464844 C 172.648438 80.746094 172.160156 81.074219 171.519531 81.46875 C 170.671875 78.011719 169.933594 74.6875 169.625 71.144531 C 167.695312 71.144531 165.839844 71.171875 163.984375 71.136719 C 162.148438 71.105469 160.324219 70.917969 158.289062 70.648438 C 160.265625 68.300781 162.101562 66.113281 164 63.855469 C 163.578125 63.597656 163.257812 63.394531 162.929688 63.203125 C 160.363281 61.730469 157.648438 60.59375 154.886719 59.550781 C 152.902344 58.800781 148.347656 55.78125 148.378906 55.710938 Z M 268.574219 101.152344 C 268.90625 101.128906 269.242188 101.097656 269.574219 101.089844 C 271.585938 101.046875 273.566406 101.289062 275.527344 101.726562 C 278.480469 102.378906 281.09375 103.644531 283.242188 105.796875 C 286.183594 108.75 290.96875 115.945312 291.09375 116.335938 C 284.085938 111.523438 277.03125 107.269531 268.933594 105.070312 C 271.191406 104.585938 273.421875 104.828125 275.660156 105.027344 C 273.644531 103.050781 270.9375 102.472656 268.574219 101.152344 " fill-opacity="1" fill-rule="evenodd"/><path fill="#f2e5b8" d="M 96.101562 196.015625 C 97.265625 190.179688 98.390625 184.578125 99.496094 178.976562 C 99.855469 177.152344 100.121094 175.3125 100.53125 173.5 C 100.871094 172.003906 101.273438 170.503906 101.796875 169.058594 C 103.175781 165.234375 104.667969 161.453125 106.640625 157.878906 C 107.621094 156.097656 108.5 154.261719 109.53125 152.507812 C 112.332031 147.738281 115.539062 143.265625 119.605469 139.476562 C 120.53125 138.613281 120.890625 137.71875 120.90625 136.464844 C 120.964844 131.359375 121.878906 126.355469 123.046875 121.394531 C 123.6875 118.691406 124.582031 116.074219 125.597656 113.492188 C 125.980469 112.515625 126.738281 110.058594 126.808594 109.71875 C 126.59375 109.742188 118.832031 112.300781 115.117188 113.679688 C 110.644531 115.34375 106.203125 117.097656 101.769531 118.859375 C 98.011719 120.347656 94.382812 122.136719 90.9375 124.25 C 88.519531 125.730469 86.25 127.457031 83.914062 129.078125 C 83.492188 129.367188 83.082031 129.675781 82.503906 130.089844 C 82.738281 128.183594 83.117188 126.558594 83.617188 124.957031 C 85.820312 117.851562 89.199219 111.335938 93.703125 105.425781 C 96.5625 101.671875 99.785156 98.234375 103.703125 95.542969 C 108.632812 92.152344 113.742188 89.105469 119.472656 87.191406 C 122.257812 86.261719 124.957031 85.074219 127.847656 83.945312 C 127.160156 83.359375 126.574219 82.875 126.003906 82.375 C 122.910156 79.667969 119.902344 76.863281 117.167969 73.796875 C 114.746094 71.085938 112.761719 68.054688 111.949219 64.425781 C 111.785156 63.679688 111.703125 62.894531 111.730469 62.132812 C 111.773438 60.875 112.347656 59.871094 113.625 59.511719 C 115.652344 58.949219 117.695312 58.4375 119.746094 57.972656 C 123.933594 57.019531 128.21875 56.722656 132.472656 56.242188 C 132.78125 56.210938 133.089844 56.160156 133.425781 56.109375 C 133.425781 55.503906 133.425781 54.957031 133.425781 54.292969 C 133.058594 54.242188 132.726562 54.167969 132.390625 54.15625 C 125.015625 53.84375 117.636719 53.640625 110.257812 53.949219 C 107.449219 54.0625 104.617188 54.179688 101.914062 55.019531 C 98.128906 56.195312 94.5625 57.863281 91.691406 60.679688 C 90.675781 61.675781 89.804688 62.855469 89.015625 64.046875 C 86.074219 68.511719 83.5625 73.203125 81.515625 78.144531 C 79.253906 83.621094 77.917969 89.347656 76.75 95.121094 C 76.050781 98.554688 75.375 101.996094 74.789062 105.445312 C 74.371094 107.898438 74.0625 110.371094 73.796875 112.84375 C 73.367188 116.855469 72.957031 120.867188 72.65625 124.886719 C 72.484375 127.226562 72.449219 129.582031 72.507812 131.929688 C 72.585938 135.121094 72.652344 138.324219 73.03125 141.484375 C 73.472656 145.238281 74.148438 148.96875 74.902344 152.679688 C 75.710938 156.699219 76.707031 160.675781 78.03125 164.566406 C 80.027344 170.429688 82.566406 176.039062 85.941406 181.253906 C 88.132812 184.640625 90.261719 188.070312 92.472656 191.441406 C 93.316406 192.730469 95.714844 195.632812 96.101562 196.015625 " fill-opacity="1" fill-rule="evenodd"/><path fill="#f2e5b8" d="M 236.519531 211.261719 C 238.769531 210.886719 240.851562 210.089844 242.796875 208.953125 C 244.46875 207.976562 246.097656 206.917969 247.285156 205.34375 C 248.507812 203.726562 249.246094 201.898438 249.53125 199.726562 C 248.753906 199.691406 248.066406 199.636719 247.378906 199.636719 C 245.292969 199.625 243.246094 199.347656 241.238281 198.796875 C 239.097656 198.210938 237.050781 197.375 235.097656 196.320312 C 232.527344 194.929688 230.964844 192.75 230.347656 189.941406 C 229.753906 187.277344 229.347656 184.570312 228.789062 181.894531 C 227.972656 177.953125 227.675781 173.980469 227.988281 169.96875 C 228.222656 166.984375 228.882812 164.070312 229.75 161.21875 C 231.035156 156.988281 232.707031 152.90625 234.898438 149.035156 C 236.171875 146.777344 237.769531 144.808594 239.554688 142.957031 C 241.109375 141.339844 242.625 139.679688 244.152344 138.03125 C 244.382812 137.78125 244.574219 137.492188 244.933594 137.03125 C 244.472656 137.207031 244.21875 137.285156 243.984375 137.394531 C 241.40625 138.617188 238.898438 139.960938 236.671875 141.757812 C 234.152344 143.789062 231.871094 146.078125 229.714844 148.488281 C 229.296875 148.957031 228.960938 149.5 228.621094 150.035156 C 226.152344 153.953125 223.820312 157.945312 222.046875 162.242188 C 221.324219 163.988281 221.085938 165.824219 220.835938 167.664062 C 220.714844 168.566406 220.664062 169.480469 220.621094 170.394531 C 220.511719 172.535156 220.570312 174.660156 220.988281 176.78125 C 221.75 180.628906 221.675781 184.53125 221.640625 188.425781 C 221.636719 188.808594 221.558594 189.191406 221.515625 189.574219 C 221.15625 192.707031 219.667969 195.273438 217.503906 197.492188 C 216.023438 199.011719 214.320312 200.242188 212.566406 201.414062 C 212.367188 201.542969 212.167969 201.667969 211.992188 201.886719 C 214.683594 201.804688 217.304688 201.382812 219.898438 200.691406 C 222.488281 200 224.867188 198.824219 227.421875 197.492188 C 227.246094 197.890625 227.175781 198.105469 227.066406 198.296875 C 225.691406 200.789062 223.960938 202.972656 221.535156 204.535156 C 219.824219 205.636719 217.960938 206.324219 215.945312 206.578125 C 214.378906 206.773438 212.804688 206.902344 211.164062 207.203125 C 211.414062 207.308594 211.660156 207.433594 211.917969 207.515625 C 216.246094 208.886719 220.671875 209.179688 225.152344 208.605469 C 229.3125 208.070312 233.328125 206.914062 237.246094 205.433594 C 238.320312 205.027344 239.398438 204.632812 240.644531 204.171875 C 239.765625 206.945312 238.054688 209.019531 236.519531 211.261719 " fill-opacity="1" fill-rule="evenodd"/><path fill="#c7b487" d="M 233.488281 178.1875 C 234.664062 178.1875 235.773438 178.1875 236.78125 178.1875 C 237.851562 176.242188 238.773438 174.34375 239.902344 172.578125 C 241.792969 169.628906 243.777344 166.734375 245.804688 163.878906 C 247.691406 161.21875 249.871094 158.757812 251.34375 155.828125 C 252.390625 153.738281 252.96875 151.523438 252.910156 149.140625 C 252.859375 147.042969 249.039062 144.824219 249.089844 144.964844 C 250.492188 149.015625 249.8125 152.777344 247.503906 156.296875 C 245.609375 159.175781 240.96875 164.511719 240.734375 164.496094 C 241.21875 163.203125 241.644531 161.882812 242.199219 160.613281 C 243.527344 157.589844 244.636719 154.5 245.390625 151.28125 C 245.828125 149.425781 245.84375 147.609375 245.195312 145.644531 C 244.878906 145.882812 244.59375 146.054688 244.351562 146.273438 C 239.144531 151.070312 235.304688 156.679688 233.796875 163.714844 C 233.011719 167.382812 232.863281 171.078125 233.179688 174.800781 C 233.273438 175.914062 233.382812 177.03125 233.488281 178.1875 " fill-opacity="1" fill-rule="evenodd"/><path fill="#f2e5b8" d="M 226.246094 57.921875 C 223.234375 54.792969 219.964844 51.949219 215.886719 50.308594 C 213.066406 49.175781 210.140625 48.238281 207.203125 47.453125 C 203.273438 46.402344 199.28125 45.597656 195.328125 44.648438 C 194.382812 44.421875 193.476562 44.035156 192.550781 43.726562 C 192.5 43.769531 192.203125 49.109375 192.753906 51.703125 C 193.027344 52.984375 193.664062 53.421875 194.929688 53.53125 C 197.792969 53.785156 200.660156 54.058594 203.515625 54.402344 C 208.191406 54.964844 212.8125 55.808594 217.339844 57.117188 C 221.050781 58.191406 224.683594 59.488281 228.210938 61.066406 C 228.429688 61.164062 228.65625 61.242188 228.878906 61.328125 C 228.945312 61.269531 227.238281 58.953125 226.246094 57.921875 " fill-opacity="1" fill-rule="evenodd"/><path fill="#ffffff" d="M 258.113281 190.609375 C 253.679688 193.257812 242.664062 191.792969 239.367188 189.175781 C 242.195312 188.1875 244.988281 187.304688 247.441406 185.636719 C 249.851562 184 252.257812 182.375 254.117188 179.972656 C 247.371094 180.503906 240.84375 182.128906 234.007812 182.097656 C 234.21875 183.203125 234.359375 184.167969 234.597656 185.109375 C 234.824219 185.988281 235.191406 186.828125 235.4375 187.707031 C 236.226562 190.511719 238.234375 192.15625 240.761719 193.300781 C 243.027344 194.324219 245.417969 194.832031 247.90625 194.886719 C 250.191406 194.9375 252.46875 194.847656 254.710938 194.359375 C 257.390625 193.78125 259.695312 192.457031 261.726562 190.691406 C 263.316406 189.308594 266.570312 186.023438 266.664062 185.785156 C 261.507812 187.289062 256.195312 187.96875 250.980469 189.113281 C 250.960938 189.191406 255.65625 190.175781 258.113281 190.609375 " fill-opacity="1" fill-rule="evenodd"/><path fill="#ffffff" d="M 275.746094 138.558594 C 272.792969 143.269531 269.910156 147.863281 266.984375 152.535156 C 267.515625 152.5625 272.167969 150.210938 273.871094 148.902344 C 276.621094 146.789062 279.371094 144.664062 282.085938 142.503906 C 282.71875 142 283.375 141.6875 284.164062 141.625 C 287.492188 141.371094 290.761719 141.503906 293.851562 142.96875 C 294.78125 143.410156 295.621094 143.945312 296.402344 144.808594 C 296.105469 144.886719 293.292969 145.011719 292.101562 144.984375 C 291.65625 144.972656 291.394531 145.097656 291.183594 145.5 C 290.066406 147.566406 288.921875 149.617188 287.792969 151.675781 C 287.769531 151.71875 290.519531 151.253906 291.746094 150.574219 C 293.75 149.46875 295.601562 148.140625 297.257812 146.554688 C 298.1875 145.671875 298.84375 144.597656 299.480469 143.503906 C 299.742188 143.050781 299.65625 142.65625 299.453125 142.21875 C 298.371094 139.902344 296.5 138.644531 294.050781 138.136719 C 291.582031 137.625 289.089844 137.65625 286.601562 137.800781 C 283.0625 138.003906 279.523438 138.265625 275.988281 138.5 C 275.851562 138.511719 275.71875 138.5625 275.746094 138.558594 " fill-opacity="1" fill-rule="evenodd"/><path fill="#f2e5b8" d="M 247.542969 128.597656 C 247.628906 127.078125 247.707031 125.6875 247.792969 124.144531 C 236 128.097656 225.042969 133.371094 215.980469 142.042969 C 221.140625 139.582031 226.25 137.007812 231.472656 134.683594 C 236.691406 132.363281 242.039062 130.339844 247.542969 128.597656 " fill-opacity="1" fill-rule="evenodd"/><path fill="#f2e5b8" d="M 222.671875 123.648438 C 224.550781 123.152344 226.1875 122.671875 227.855469 122.292969 C 233.835938 120.929688 239.824219 119.59375 245.8125 118.273438 C 246.972656 118.019531 248.164062 117.890625 249.351562 117.75 C 249.851562 117.695312 250.1875 117.527344 250.410156 117.054688 C 250.785156 116.269531 251.210938 115.511719 251.695312 114.59375 C 250.914062 114.667969 250.269531 114.707031 249.632812 114.800781 C 242.070312 115.914062 234.734375 117.859375 227.707031 120.894531 C 226.230469 121.53125 224.832031 122.355469 223.40625 123.105469 C 223.207031 123.210938 223.035156 123.375 222.671875 123.648438 " fill-opacity="1" fill-rule="evenodd"/><path fill="#f2e5b8" d="M 306.21875 112.230469 C 306.40625 112.027344 306.539062 111.777344 306.691406 111.539062 C 307 111.050781 306.910156 110.59375 306.523438 110.203125 C 305.253906 108.933594 303.917969 107.6875 302.222656 107.0625 C 299.863281 106.191406 297.433594 105.503906 295.019531 104.78125 C 294.425781 104.605469 293.777344 104.605469 292.949219 104.496094 C 293.253906 104.769531 297.308594 107.792969 299.167969 109.164062 C 299.535156 109.433594 299.867188 109.75 300.226562 110.03125 C 301.0625 110.683594 301.421875 111.515625 301.378906 112.589844 C 301.324219 113.972656 301.367188 115.359375 301.367188 116.746094 C 301.488281 116.816406 304.726562 113.808594 306.21875 112.230469 " fill-opacity="1" fill-rule="evenodd"/><path fill="#ffffff" d="M 253.996094 95.304688 C 253.226562 93.957031 252.492188 92.914062 251.527344 92.046875 C 249.894531 90.578125 248.085938 89.402344 245.941406 88.808594 C 243.230469 88.0625 240.523438 89.308594 239.390625 91.835938 C 239.324219 91.988281 239.285156 92.152344 239.199219 92.414062 C 244.289062 92.441406 249.144531 93.292969 253.996094 95.304688 " fill-opacity="1" fill-rule="evenodd"/><path fill="#f2e5b8" d="M 302.355469 138.109375 C 305.441406 133.726562 305.140625 129.128906 304.027344 124.195312 C 303.207031 125.09375 302.382812 125.671875 302.433594 126.898438 C 302.542969 129.328125 301.796875 131.59375 300.851562 133.789062 C 300.617188 134.332031 300.621094 134.742188 300.902344 135.246094 C 301.398438 136.128906 301.824219 137.050781 302.355469 138.109375 " fill-opacity="1" fill-rule="evenodd"/><path fill="#e26400" d="M 139.042969 44.027344 C 144.964844 48.984375 145.644531 52.460938 154.421875 52.800781 C 162.285156 53.101562 167.355469 53.882812 174.191406 57.515625 C 179.980469 60.589844 184.226562 64.855469 189.667969 68.054688 C 192.46875 69.703125 196.046875 71.460938 199.222656 72.113281 C 201.886719 72.660156 185.917969 98.160156 187.375 104.117188 C 189.265625 111.859375 199.726562 105.875 204.511719 105.09375 C 212.691406 103.761719 220.367188 103.746094 228.675781 104.570312 C 234.222656 105.117188 240.550781 103.507812 245.777344 105.039062 C 244.933594 107.222656 242.726562 108.101562 241.398438 109.929688 C 240.65625 110.953125 240.222656 113.136719 239.679688 113.792969 C 237.957031 115.882812 236.011719 116.3125 233.511719 116.9375 C 228.339844 118.226562 221.554688 118.539062 217.1875 121.644531 C 219.738281 124.632812 224.476562 124.585938 228.167969 124.804688 C 228.792969 129.894531 216.792969 136.375 213.746094 139.75 C 205.738281 148.636719 208.105469 157.046875 211.375 167.292969 C 209.734375 167.8125 208.15625 168.386719 206.675781 169.261719 C 206.574219 173.996094 209.8125 178.984375 209.277344 183.886719 C 205.632812 183.296875 201.835938 179.484375 198.449219 177.574219 C 193.144531 174.578125 187.554688 174.089844 181.472656 173.855469 C 170.929688 173.445312 155.386719 173.46875 145.683594 177.800781 C 142.113281 179.398438 141.652344 180.492188 137.886719 180.773438 C 137.527344 182.863281 132.085938 186.816406 130.339844 189.65625 C 128.355469 192.886719 127.058594 195.855469 124.542969 198.859375 C 120.171875 204.066406 118.722656 207.535156 112.242188 204.453125 C 108.734375 202.78125 105.382812 202.097656 101.695312 200.183594 C 94.632812 196.519531 90.058594 195.589844 85.109375 188.792969 C 79.882812 181.617188 77.820312 173.964844 75.246094 165.628906 C 73.003906 158.375 69.953125 152.613281 68.765625 145.328125 C 67.589844 138.132812 69.246094 132.601562 70.472656 125.609375 C 71.679688 118.761719 72.109375 111.464844 73.230469 104.65625 C 75.324219 91.964844 98.234375 87.84375 109.046875 84.40625 C 116.347656 82.085938 123.417969 78.695312 130.695312 76.488281 C 134.761719 75.253906 138.140625 76.121094 139.382812 71.222656 C 141.113281 64.398438 134.976562 57.882812 137.722656 51.484375 " fill-opacity="1" fill-rule="evenodd"/><path fill="#e26400" d="M 266.242188 95.347656 C 266.621094 95.265625 266.957031 95.082031 267.304688 94.871094 C 269.4375 88.421875 261.382812 84.15625 256.15625 84.648438 C 257.785156 86.25 258.191406 88.699219 258.078125 90.925781 C 256.09375 91.722656 252.574219 91.035156 250.949219 89.628906 C 252.554688 90.386719 259.8125 94.996094 257.027344 96.675781 C 254.507812 98.191406 248.367188 94.875 245.8125 94.457031 C 242.40625 93.902344 237.738281 94.445312 234.609375 92.667969 C 232.382812 91.40625 233.894531 90.304688 234.824219 88.339844 C 235.667969 86.566406 236.953125 84.828125 237.609375 83.097656 C 230.964844 82.464844 223.234375 86.898438 219.171875 92.003906 C 216.203125 95.730469 218.636719 97.738281 222.730469 97.089844 C 226.347656 96.519531 229.660156 95.496094 233.507812 95.347656 C 239.195312 95.128906 244.289062 96.300781 249.59375 97.273438 C 254.203125 98.117188 261.144531 100.492188 264.925781 96.882812 " fill-opacity="1" fill-rule="evenodd"/><path fill="#e26400" d="M 259.285156 101.046875 C 254.355469 101.046875 250.359375 101.5625 245.8125 102.445312 C 241.390625 103.304688 237.203125 104.839844 232.695312 105.792969 C 230.363281 106.285156 228.136719 106.605469 225.585938 106.605469 C 222.828125 106.605469 218.316406 106.40625 222.894531 108.9375 C 228.28125 111.917969 244.246094 111.046875 247.570312 105.144531 " fill-opacity="1" fill-rule="evenodd"/><path fill="#e26400" d="M 231.167969 104.851562 C 223.261719 104.851562 215.242188 104.242188 207.4375 104.265625 C 199.828125 104.285156 190.128906 103.738281 185.242188 97.269531 C 184.902344 101.359375 183.523438 108.550781 186.695312 111.574219 C 191.917969 116.554688 202.175781 114.566406 207.734375 111.28125 " fill-opacity="1" fill-rule="evenodd"/><path fill="#e26400" d="M 231.457031 104.851562 C 227.414062 104.988281 223.574219 103.621094 219.742188 103.386719 C 216.03125 103.164062 212.285156 103.09375 208.613281 103.09375 C 199.855469 103.105469 193.1875 103.636719 185.160156 99.984375 C 183.867188 115.320312 210.042969 111.496094 218.863281 110.113281 " fill-opacity="1" fill-rule="evenodd"/><path fill="#e26400" d="M 173.460938 58.355469 C 176.761719 59.160156 179.910156 62.382812 183.125 63.910156 C 186.777344 65.648438 190.691406 66.59375 194.550781 67.722656 C 197.941406 68.714844 199.859375 70.625 202.816406 72.042969 C 206.570312 73.84375 211.332031 74.332031 215.257812 76.207031 C 209.308594 76.109375 205.480469 77.214844 200.636719 80.5 C 195.929688 83.691406 190.476562 87.792969 188.1875 93.152344 C 185.851562 98.628906 188.113281 103.8125 193.078125 106.898438 C 194.894531 108.027344 200.914062 109.191406 200.078125 112.101562 C 198.992188 115.878906 188.453125 114.632812 186.046875 114.257812 C 178.125 113.015625 166.898438 106.800781 164.292969 98.726562 C 161.238281 89.273438 169.824219 85.09375 172.015625 77.34375 C 172.421875 75.902344 172.492188 74.082031 171.410156 72.976562 " fill-opacity="1" fill-rule="evenodd"/><path fill="#e26400" d="M 199.527344 78.238281 C 195.707031 81.679688 188.691406 92.449219 192.710938 97.621094 C 194.929688 100.46875 200.585938 101.433594 203.90625 102.4375 C 208.203125 103.738281 213.773438 106.863281 218.257812 106.65625 C 216.140625 108.867188 210.066406 108.410156 207.109375 108.644531 C 198.0625 109.363281 189.046875 110.332031 180.683594 106.027344 C 172.421875 101.777344 172.472656 96.277344 175.894531 88.214844 C 176.726562 86.242188 177.878906 82.1875 180.195312 81.457031 " fill-opacity="1" fill-rule="evenodd"/><path fill="#e26400" d="M 223.84375 105.726562 C 214.226562 102.523438 203.074219 103.503906 193.957031 98.929688 C 191.585938 97.738281 189.460938 96.050781 188.113281 93.753906 C 186.613281 91.203125 186.90625 88.308594 186.347656 85.488281 C 186.050781 83.976562 186.835938 83.335938 185.410156 82.554688 C 183.652344 81.589844 181.527344 83.53125 180.769531 84.945312 C 179.367188 87.554688 179.660156 92.703125 179.882812 95.550781 C 180.332031 101.253906 183.785156 107.046875 188.441406 110.4375 C 195.519531 115.582031 206.5625 116.335938 214.808594 114.429688 C 215.183594 114.007812 214.632812 114.367188 214.46875 114.207031 " fill-opacity="1" fill-rule="evenodd"/><path fill="#e26400" d="M 247.460938 102.585938 C 243.589844 102.585938 240.175781 103.65625 236.367188 103.902344 C 231.199219 104.234375 226.070312 103.890625 220.910156 103.902344 C 218.382812 103.90625 215.808594 103.746094 213.292969 103.898438 C 212.910156 103.917969 210.714844 103.972656 210.652344 104.554688 C 210.582031 105.222656 213.238281 105.433594 213.726562 105.546875 C 219.164062 106.789062 224.761719 106.972656 230.328125 106.972656 C 233.375 106.972656 236.238281 106.894531 239.238281 106.421875 C 240.953125 106.148438 242.851562 106.207031 244.492188 105.65625 " fill-opacity="1" fill-rule="evenodd"/><path fill="#e26400" d="M 231.3125 104.667969 C 226.980469 103.816406 222.511719 103.664062 218.125 103.242188 C 212.503906 102.707031 206.585938 102.652344 201.214844 100.753906 C 199.082031 100 196.613281 99.175781 194.867188 97.730469 C 193.40625 96.527344 192.976562 94.644531 192.867188 92.824219 C 192.722656 90.433594 193.238281 88.996094 194.648438 87.125 C 196.726562 84.363281 199.265625 81.042969 202.339844 79.445312 C 204.164062 78.5 206.058594 77.742188 207.996094 77.035156 C 204.554688 75.964844 199.363281 77.992188 196.167969 79.003906 C 189.949219 80.972656 184.050781 85.109375 183.847656 92.144531 C 183.664062 98.5 190.976562 103.414062 196.246094 105.308594 C 202.433594 107.539062 209.835938 107.171875 216.34375 107.402344 C 216.28125 107.292969 216.21875 107.1875 216.15625 107.082031 " fill-opacity="1" fill-rule="evenodd"/><path fill="#e26400" d="M 212.308594 75.390625 C 213.464844 75.660156 214.585938 76.035156 215.789062 76.242188 C 213.457031 76.414062 211.140625 76.425781 208.878906 76.898438 C 207.214844 77.25 205.5625 77.671875 203.882812 77.992188 C 200.664062 78.601562 197.488281 80.222656 194.195312 80.09375 C 193.738281 77.628906 197.554688 75.824219 199.347656 75.171875 " fill-opacity="1" fill-rule="evenodd"/><path fill="#e26400" d="M 211.101562 76.265625 C 207.894531 76.9375 204.304688 78.054688 201.214844 79.554688 C 199.609375 80.335938 197.964844 81.074219 196.394531 81.992188 C 195.265625 82.648438 190.460938 86.296875 189.675781 83.925781 C 188.664062 80.871094 194.3125 77.316406 196.410156 76.285156 C 198.347656 75.328125 201.0625 74.75 203.191406 74.511719 " fill-opacity="1" fill-rule="evenodd"/><path fill="#e26400" d="M 192.648438 42.164062 C 193.078125 42.429688 192.816406 43.632812 193.082031 44.21875 C 193.445312 45.011719 194.300781 45.699219 194.949219 46.242188 C 196.636719 47.660156 199.449219 48.238281 201.566406 48.75 C 205.472656 49.683594 208.667969 51.171875 212.082031 53.265625 C 214.070312 54.480469 216.984375 56.042969 218.3125 58.046875 C 216.492188 57.949219 214.632812 57.484375 212.753906 57.40625 C 209.160156 57.269531 205.578125 56.863281 201.988281 56.65625 C 199.042969 56.492188 196.40625 56.117188 193.632812 55.132812 C 191.789062 54.480469 190.675781 53.195312 190.363281 51.160156 C 190.136719 49.671875 190.503906 48.21875 190.699219 46.761719 C 190.839844 45.71875 191.476562 43.835938 191.21875 42.929688 " fill-opacity="1" fill-rule="evenodd"/><path fill="#e26400" d="M 134.648438 53.457031 C 131.558594 53.609375 127.277344 54.738281 123.613281 54.773438 C 119.175781 54.820312 114.875 55.746094 110.699219 57.132812 C 107.53125 58.179688 102.984375 60.0625 101.53125 63.324219 C 98.769531 69.539062 103.140625 75.667969 106.148438 80.828125 C 110.257812 87.878906 113.84375 99.417969 123.835938 98.859375 C 127.835938 98.636719 134.039062 94.945312 134.882812 90.773438 C 135.855469 85.976562 133.9375 80.917969 133.316406 76.238281 C 133.042969 74.199219 133.660156 71.117188 133.109375 69.46875 " fill-opacity="1" fill-rule="evenodd"/><path fill="#e26400" d="M 279.496094 113.917969 C 272.25 112.320312 258.25 108.210938 255.113281 118.011719 C 251.019531 130.789062 279.730469 131.921875 286.230469 134.324219 C 286.9375 134.582031 287.523438 134.636719 288.179688 134.984375 C 282.316406 135.625 276.253906 135.054688 270.34375 135.542969 C 265.40625 135.949219 261.203125 137.917969 256.421875 138.851562 C 250.03125 140.105469 247.023438 136.828125 246.460938 131.171875 C 245.863281 125.132812 245.167969 118.773438 250.285156 114.574219 C 254.039062 111.5 257.945312 109.484375 262.800781 109.238281 C 266.414062 109.050781 269.050781 109.988281 272.464844 110.992188 " fill-opacity="1" fill-rule="evenodd"/><path fill="#e26400" d="M 218.863281 124.152344 C 221.660156 116.78125 236.519531 115.316406 242.878906 113.40625 C 244.890625 112.804688 249.734375 111.46875 251.589844 112.824219 C 253.898438 114.503906 253.050781 120.730469 252.839844 123.273438 C 252.578125 126.449219 252.335938 129.515625 249.339844 131.097656 C 245.175781 133.292969 239.753906 133.160156 235.546875 135.261719 C 232.773438 136.652344 229.734375 138.847656 227.429688 140.886719 C 224.972656 143.066406 216.054688 152.253906 212.191406 150.132812 C 207.507812 147.5625 215.769531 135.363281 218.585938 133.507812 C 219.773438 132.730469 223.0625 132.175781 223.492188 130.59375 C 224.4375 127.089844 217.238281 126.066406 215.054688 125.90625 " fill-opacity="1" fill-rule="evenodd"/><path fill="#e26400" d="M 244.347656 140.816406 C 235.632812 146.390625 229.507812 159.714844 227.652344 169.769531 C 226.789062 174.4375 226.523438 179.519531 226.773438 184.390625 C 226.902344 186.914062 227.152344 189.292969 227.878906 191.703125 C 228.761719 194.621094 229.976562 194.1875 231.746094 196.386719 C 231.726562 196.367188 232.941406 196.929688 232.96875 196.941406 C 230.773438 199.734375 229.929688 203.410156 227.453125 205.96875 C 232.964844 204.546875 239.046875 203.332031 244.597656 202.273438 C 244.289062 207.1875 241.003906 213.453125 235.546875 213.0625 C 232.996094 212.882812 231.511719 211.605469 228.824219 211.585938 C 226.390625 211.566406 223.933594 211.703125 221.5 211.585938 C 218.285156 211.429688 210.429688 210.035156 208.320312 207.421875 C 206.316406 204.933594 208.136719 202.109375 209.269531 199.589844 C 211.261719 195.179688 212.882812 190.179688 212.71875 185.210938 C 212.527344 179.382812 209.722656 174.601562 211.242188 168.605469 C 212.5625 163.40625 215.769531 159.03125 218.929688 154.832031 C 222.183594 150.511719 225.28125 145.546875 229.125 141.695312 C 233.15625 137.65625 237.878906 135.734375 243.175781 134.398438 C 245.113281 133.910156 246.390625 133.1875 247.792969 134.964844 C 248.902344 136.371094 248.964844 139.476562 246.691406 139.648438 " fill-opacity="1" fill-rule="evenodd"/><path fill="#e26400" d="M 291.507812 103.242188 C 296.53125 104.027344 308.390625 103.8125 307.984375 110.917969 C 307.796875 114.207031 304.988281 117.730469 301.828125 118.765625 C 299.433594 119.546875 297.398438 118.152344 296.0625 116.15625 C 294.792969 114.246094 294.269531 111.851562 293.261719 109.808594 C 292.617188 108.492188 291.746094 107.277344 291.285156 105.875 " fill-opacity="1" fill-rule="evenodd"/><path fill="#e26400" d="M 286.675781 110.554688 C 284.121094 107.199219 282.214844 103.023438 278.03125 101.238281 C 273.652344 99.363281 268.953125 99.828125 264.609375 100.90625 C 266.105469 101.539062 267.742188 102.035156 269.203125 102.664062 C 267.246094 102.648438 265.183594 102.480469 263.242188 102.652344 C 260.917969 102.859375 258.378906 103.863281 256.070312 103.863281 C 257.191406 104.222656 258.996094 104.132812 260.273438 104.269531 C 261.863281 104.449219 263.460938 104.765625 265.003906 105.144531 C 267.554688 105.769531 270.164062 106.667969 272.761719 107.484375 C 276.109375 108.535156 279.0625 109.996094 282.164062 111.546875 C 284.722656 112.824219 287.460938 113.769531 289.894531 115.265625 C 290.492188 115.632812 291.078125 115.972656 291.636719 116.347656 C 290.34375 115.605469 289.40625 114.453125 288.285156 113.480469 C 286.964844 112.328125 285.324219 111.460938 284.183594 110.117188 " fill-opacity="1" fill-rule="evenodd"/><path fill="#e26400" d="M 264.121094 98.125 C 261.675781 100.070312 258.570312 100.855469 255.769531 102.109375 C 253.808594 102.984375 251.867188 104.113281 249.945312 105.117188 C 248.113281 106.070312 244.785156 108.074219 242.640625 107.929688 C 245.269531 104.988281 249.945312 103.59375 253.28125 101.785156 C 256.660156 99.945312 260.0625 97.902344 263.679688 96.808594 " fill-opacity="1" fill-rule="evenodd"/><path fill="#e26400" d="M 261.484375 98.125 C 259.894531 98.234375 258.28125 99.148438 256.796875 99.554688 C 255.042969 100.042969 253.195312 100.738281 251.34375 101.199219 C 248.464844 101.914062 245.277344 102.554688 242.285156 102.914062 C 239.492188 103.25 236.714844 103.710938 233.945312 104.230469 C 232.042969 104.589844 228.757812 104.914062 227.332031 106.3125 C 228.574219 107.484375 231.804688 107.113281 233.386719 107.054688 C 237.167969 106.914062 241.140625 106.132812 244.828125 105.300781 C 247.691406 104.648438 249.390625 103.6875 251.820312 102.398438 C 253.042969 101.75 254.503906 101.453125 255.800781 101.082031 C 257.121094 100.707031 258.394531 99.84375 259.726562 99.589844 " fill-opacity="1" fill-rule="evenodd"/><path fill="#e26400" d="M 260.164062 99.589844 C 258.039062 99.167969 255.792969 99.074219 253.582031 99.003906 C 249.234375 98.875 245.011719 99.652344 240.726562 99.769531 C 242.550781 100.261719 244.570312 100.53125 246.433594 101.082031 C 248.941406 101.824219 251.972656 103.25 254.632812 103.097656 C 254.804688 103.125 254.484375 103 254.453125 102.953125 " fill-opacity="1" fill-rule="evenodd"/><g clip-path="url(#daa7a57a03)"><path fill="#111b1e" d="M 191.289062 199.804688 C 191.84375 201.320312 192.6875 202.425781 193.765625 203.355469 C 195.851562 205.15625 198.238281 206.5 200.664062 207.785156 C 203.109375 209.082031 205.542969 210.414062 207.949219 211.792969 C 210.480469 213.238281 213.238281 213.824219 216.09375 214.078125 C 219.269531 214.363281 226.125 213.347656 226.464844 213.394531 C 224.5625 215 222.34375 216.136719 220.234375 217.746094 C 220.582031 217.796875 230.242188 217.007812 234.875 216.429688 C 237.621094 216.089844 240.375 215.578125 242.898438 214.351562 C 248.679688 211.527344 252.863281 207.230469 254.800781 201 C 255.234375 199.601562 255.917969 198.703125 257.300781 198.074219 C 258.851562 197.375 260.300781 196.394531 261.679688 195.378906 C 264.453125 193.332031 267.046875 191.070312 269.414062 188.5625 C 271.335938 186.535156 274.308594 181.332031 274.441406 180.949219 C 267.988281 182.449219 261.65625 183.820312 254.972656 184.722656 C 255.605469 183.808594 256.417969 183.371094 256.949219 182.683594 C 257.488281 181.992188 258.058594 181.320312 258.5625 180.609375 C 259.089844 179.863281 259.582031 179.09375 260.039062 178.304688 C 260.476562 177.554688 260.84375 176.765625 261.339844 175.789062 C 257.300781 176.316406 253.492188 176.808594 249.585938 177.316406 C 249.53125 176.976562 249.445312 176.71875 249.453125 176.464844 C 249.566406 172.96875 250.050781 169.554688 251.585938 166.355469 C 252.664062 164.109375 253.707031 161.851562 254.769531 159.601562 C 256.136719 156.707031 257.820312 153.992188 259.761719 151.449219 C 260.980469 149.859375 262.664062 148.890625 264.683594 148.046875 C 263.503906 151.738281 261.34375 154.710938 259.660156 158.207031 C 260.910156 157.972656 261.941406 157.820312 262.945312 157.582031 C 269.648438 155.984375 275.433594 152.621094 280.722656 148.316406 C 281.839844 147.410156 282.960938 146.507812 284.046875 145.5625 C 284.609375 145.070312 285.1875 144.792969 285.949219 144.882812 C 286.421875 144.9375 286.910156 144.890625 287.605469 144.890625 C 285.476562 149.203125 283.355469 153.285156 280.367188 157.179688 C 281.726562 157.046875 288.285156 155.789062 290.378906 155.09375 C 292.601562 154.351562 294.464844 152.914062 296.308594 151.515625 C 298.550781 149.808594 300.632812 147.929688 302.140625 145.5 C 302.257812 145.308594 302.472656 145.128906 302.683594 145.058594 C 303.847656 144.640625 304.613281 143.78125 305.214844 142.777344 C 307.511719 138.933594 308.839844 134.820312 308.765625 130.296875 C 308.722656 127.699219 308.683594 125.105469 308.171875 122.546875 C 307.964844 121.515625 307.703125 120.492188 307.363281 119.5 C 307.15625 118.894531 307.257812 118.46875 307.601562 117.957031 C 308.734375 116.265625 309.808594 114.542969 310.910156 112.828125 C 311.945312 111.207031 311.566406 109.710938 310.457031 108.382812 C 308.90625 106.527344 307.03125 105.066406 304.933594 103.882812 C 302.367188 102.429688 299.566406 101.632812 296.738281 100.917969 C 294.632812 100.382812 292.496094 99.953125 290.363281 99.515625 C 289.425781 99.324219 288.5625 99.003906 287.710938 98.550781 C 283.550781 96.34375 279.140625 94.882812 274.460938 94.253906 C 274.15625 94.214844 273.851562 94.152344 273.515625 94.097656 C 273.558594 93.800781 273.585938 93.5625 273.632812 93.324219 C 274.441406 89.5625 273.238281 86.492188 270.367188 84.019531 C 269.023438 82.859375 267.511719 81.988281 265.785156 81.507812 C 263.148438 80.773438 260.539062 79.914062 257.867188 79.335938 C 255.367188 78.789062 253.316406 77.542969 251.417969 75.949219 C 248.566406 73.554688 245.769531 71.101562 242.882812 68.75 C 241.390625 67.53125 239.773438 66.464844 238.191406 65.359375 C 237.683594 65.003906 237.292969 64.597656 237.035156 64.039062 C 234.347656 58.175781 230.164062 53.570312 224.949219 49.863281 C 223.320312 48.707031 221.679688 47.539062 219.921875 46.601562 C 216.6875 44.871094 213.167969 43.871094 209.613281 42.996094 C 205.460938 41.96875 201.308594 40.929688 197.171875 39.832031 C 195.273438 39.328125 193.421875 38.652344 191.542969 38.074219 C 190.941406 37.886719 190.324219 37.746094 189.703125 37.621094 C 188.332031 37.347656 188 37.523438 187.773438 38.917969 C 187.542969 40.335938 187.390625 41.769531 187.320312 43.203125 C 187.261719 44.425781 187.367188 45.65625 187.394531 46.882812 C 187.402344 47.160156 187.398438 47.433594 187.398438 47.785156 C 187.21875 47.726562 187.082031 47.710938 186.976562 47.648438 C 182.75 45.183594 178.238281 43.519531 173.40625 42.691406 C 168.867188 41.910156 164.332031 41.15625 159.699219 41.226562 C 158.226562 41.25 156.75 41.269531 155.277344 41.332031 C 152.023438 41.472656 148.832031 41.035156 145.652344 40.402344 C 142.28125 39.726562 138.898438 39.101562 135.515625 38.476562 C 134.40625 38.273438 134.253906 38.355469 133.945312 39.460938 C 133.417969 41.355469 133.082031 43.285156 133.023438 45.261719 C 133.007812 45.816406 132.949219 46.371094 132.90625 46.957031 C 132.25 46.957031 131.660156 47 131.078125 46.949219 C 125.964844 46.488281 120.835938 46.3125 115.703125 46.339844 C 113.035156 46.351562 110.359375 46.25 107.695312 46.398438 C 103.050781 46.660156 98.457031 47.367188 94.125 49.132812 C 87.847656 51.695312 82.847656 55.773438 79.621094 61.839844 C 77.792969 65.277344 75.898438 68.691406 74.503906 72.328125 C 71.625 79.84375 69.351562 87.527344 68.085938 95.492188 C 67.398438 99.816406 66.613281 104.128906 65.945312 108.460938 C 65.105469 113.898438 64.503906 119.371094 63.882812 124.839844 C 63.328125 129.707031 63.203125 134.570312 63.328125 139.445312 C 63.472656 144.816406 64.097656 150.128906 65.457031 155.363281 C 66.460938 159.230469 67.527344 163.070312 68.722656 166.886719 C 70.921875 173.90625 73.84375 180.609375 77.34375 187.070312 C 79.515625 191.078125 81.679688 195.089844 84.167969 198.921875 C 86.753906 202.898438 89.621094 206.667969 92.632812 210.328125 C 95.875 214.257812 99.253906 218.0625 102.953125 221.566406 C 106.238281 224.683594 109.585938 227.734375 112.898438 230.820312 C 114.800781 232.589844 116.691406 234.375 118.585938 236.152344 C 118.863281 236.417969 119.148438 236.671875 119.496094 236.996094 C 119.847656 236.71875 120.199219 236.492188 120.488281 236.207031 C 123.546875 233.257812 126.648438 230.351562 129.625 227.324219 C 132.953125 223.941406 140.445312 217.277344 140.796875 217.007812 C 141.398438 220.527344 142.375 223.828125 143.453125 227.191406 C 143.625 227.070312 148.238281 220.511719 150.429688 217.292969 C 153.089844 213.386719 156.105469 209.796875 159.777344 206.789062 C 160.433594 206.257812 161.082031 205.722656 161.738281 205.195312 C 161.816406 205.132812 161.925781 205.101562 162.097656 205.019531 C 163.898438 207.058594 165.363281 209.460938 167.9375 210.992188 C 168.078125 210.492188 168.1875 210.105469 168.292969 209.714844 C 169.050781 206.96875 169.980469 204.292969 171.628906 201.921875 C 173.023438 199.914062 174.726562 198.179688 176.628906 196.683594 C 179.414062 194.492188 182.253906 192.359375 185.179688 190.359375 C 187.257812 188.9375 189.480469 187.628906 192.058594 187.332031 C 196.402344 186.839844 200.3125 187.769531 203.355469 191.144531 C 204.316406 192.210938 204.980469 193.402344 205.035156 194.902344 C 205.109375 196.875 204.195312 198.257812 202.621094 199.28125 C 201.578125 199.957031 200.425781 200.355469 199.183594 200.527344 C 196.8125 200.847656 194.488281 200.675781 192.191406 200.035156 C 191.960938 199.96875 191.726562 199.917969 191.289062 199.804688 Z M 285.082031 117.660156 C 285.117188 117.59375 279.980469 112.714844 276.957031 111.390625 C 274.515625 110.324219 271.996094 109.441406 269.496094 108.5 C 266.863281 107.511719 264.152344 106.792969 261.402344 106.210938 C 258.996094 105.695312 256.738281 106.054688 254.546875 107.125 C 253.574219 107.601562 252.570312 108.050781 251.535156 108.375 C 250.117188 108.820312 248.65625 109.132812 247.214844 109.5 C 248.882812 107.484375 250.925781 105.972656 252.984375 104.550781 C 255.054688 103.117188 257.390625 102.066406 259.824219 100.734375 C 259.300781 100.683594 259 100.613281 258.707031 100.636719 C 257.757812 100.703125 256.816406 100.816406 255.871094 100.898438 C 253.800781 101.082031 251.753906 101.378906 249.863281 102.328125 C 247.824219 103.355469 245.664062 104.085938 243.507812 104.835938 C 239.105469 106.367188 234.5625 107.332031 229.949219 107.769531 C 226.285156 108.117188 222.578125 108.097656 218.890625 108.054688 C 214.957031 108.007812 211.023438 107.738281 207.09375 107.570312 C 206.765625 107.558594 206.433594 107.570312 205.886719 107.570312 C 206.59375 108.300781 207.261719 108.71875 207.972656 109.082031 C 210.167969 110.210938 212.429688 111.136719 214.898438 111.503906 C 217.222656 111.851562 219.523438 112.484375 221.855469 112.621094 C 225.460938 112.832031 229.09375 112.882812 232.703125 112.507812 C 233.980469 112.375 235.265625 112.28125 236.550781 112.167969 C 236.441406 112.414062 230.230469 115.472656 227.109375 116.4375 C 222.210938 117.957031 217.238281 119.203125 212.160156 119.964844 C 208.898438 120.457031 205.628906 120.929688 202.347656 121.285156 C 197.84375 121.773438 188.289062 122.320312 188.039062 122.367188 C 187.988281 122.460938 192.1875 125.644531 194.429688 126.152344 C 198.375 127.042969 202.375 127.601562 206.390625 128.039062 C 210.230469 128.460938 214.082031 128.769531 217.929688 129.140625 C 218.9375 129.234375 219.941406 129.371094 221.035156 129.5 C 220.902344 129.691406 216.488281 133.65625 214.066406 135.179688 C 210.464844 137.445312 206.597656 138.769531 202.316406 138.570312 C 199.265625 138.425781 196.207031 138.222656 193.1875 137.8125 C 189.851562 137.359375 186.535156 136.710938 183.246094 136.003906 C 181.679688 135.667969 180.128906 135.121094 178.6875 134.429688 C 176.152344 133.214844 174.347656 131.121094 172.71875 128.902344 C 171.953125 127.863281 171.144531 126.789062 170.679688 125.601562 C 169.582031 122.808594 169.496094 119.921875 170.496094 117.054688 C 172.90625 110.152344 176.59375 104.058594 181.964844 99.035156 C 182.65625 98.390625 184.421875 96.832031 184.582031 96.664062 C 184.5625 96.597656 183.023438 96.566406 182.28125 96.679688 C 178.726562 97.21875 175.394531 98.320312 172.476562 100.511719 C 169.039062 103.09375 165.929688 106.023438 163.207031 109.359375 C 162.644531 110.050781 162.054688 110.71875 161.324219 111.578125 C 161.179688 110.675781 161.089844 110.027344 160.976562 109.375 C 160.460938 106.484375 160.882812 103.675781 161.761719 100.878906 C 159.777344 101.796875 158.214844 103.074219 157.40625 105.09375 C 156.976562 106.167969 156.609375 107.269531 156.222656 108.359375 C 154.914062 112.082031 153.929688 115.867188 153.945312 119.851562 C 153.953125 122.207031 153.960938 124.558594 154.550781 126.855469 C 155.898438 132.140625 157.820312 137.210938 160.257812 142.085938 C 162.140625 145.859375 164.53125 149.261719 167.628906 152.136719 C 170.882812 155.152344 174.582031 157.339844 179.058594 158.023438 C 181.730469 158.433594 184.390625 158.90625 187.054688 159.371094 C 188.558594 159.628906 189.941406 160.210938 191.257812 160.992188 C 192.957031 162.003906 194.398438 163.339844 195.855469 164.660156 C 200.144531 168.558594 204.738281 179.257812 204.785156 179.667969 C 203.136719 177.980469 201.640625 176.457031 200.15625 174.917969 C 197.734375 172.402344 195.105469 170.152344 192.011719 168.472656 C 190.039062 167.402344 187.945312 166.695312 185.703125 166.605469 C 183.144531 166.507812 180.574219 166.609375 178.015625 166.515625 C 176.40625 166.457031 174.785156 166.3125 173.199219 166.019531 C 169.421875 165.324219 166.273438 163.363281 163.480469 160.828125 C 162.03125 159.503906 160.679688 158.0625 159.367188 156.605469 C 157.675781 154.726562 155.972656 152.824219 154.859375 150.539062 C 153.503906 147.769531 152.277344 144.9375 151 142.132812 C 150.820312 141.738281 150.65625 141.332031 150.449219 140.84375 C 148.328125 143.183594 147.300781 145.992188 145.910156 148.800781 C 145.6875 148.257812 145.527344 147.945312 145.429688 147.617188 C 144.617188 144.957031 144.105469 142.246094 144.019531 139.457031 C 143.886719 135.046875 144.917969 130.839844 146.085938 126.640625 C 146.507812 125.128906 146.976562 121.214844 146.976562 120.746094 C 145.402344 122.089844 143.957031 123.328125 142.398438 124.664062 C 142.398438 124.152344 142.378906 123.78125 142.398438 123.410156 C 142.546875 120.496094 142.871094 117.605469 143.496094 114.753906 C 143.902344 112.90625 144.273438 111.046875 144.808594 109.238281 C 145.570312 106.671875 146.785156 104.289062 148.152344 101.996094 C 149.046875 100.492188 149.957031 98.972656 151.0625 97.628906 C 153.609375 94.527344 156.765625 92.105469 160.1875 90.070312 C 162.847656 88.488281 165.4375 86.816406 167.941406 85.003906 C 168.238281 84.789062 168.511719 84.542969 168.875 84.246094 C 168.40625 83.992188 168.074219 83.808594 167.734375 83.640625 C 166.480469 83.007812 165.210938 82.402344 163.972656 81.75 C 160.675781 80.023438 157.378906 78.3125 153.847656 77.074219 C 151 76.070312 148.589844 74.371094 146.796875 71.9375 C 144.453125 68.75 142.765625 65.203125 141.53125 61.449219 C 140.074219 57 140.210938 52.390625 140.210938 47.796875 C 140.210938 47.417969 140.265625 47.039062 140.296875 46.574219 C 140.863281 46.738281 141.371094 46.847656 141.859375 47.027344 C 145.464844 48.34375 149.183594 48.859375 153.019531 48.859375 C 157.378906 48.859375 161.730469 48.851562 166.078125 49.320312 C 171.03125 49.855469 175.832031 50.894531 180.460938 52.773438 C 185.320312 54.75 189.367188 57.746094 192.671875 61.824219 C 195.628906 65.480469 202.074219 73.058594 202.226562 73.285156 C 202.421875 72.859375 201.800781 69.507812 201.253906 68.191406 C 200.25 65.765625 199.066406 63.410156 197.960938 61.027344 C 197.832031 60.75 197.714844 60.46875 197.542969 60.078125 C 200.121094 60.171875 202.554688 60.375 204.980469 60.746094 C 207.167969 61.074219 209.347656 61.445312 211.542969 61.714844 C 215.316406 62.175781 219.066406 62.746094 222.652344 64.054688 C 225.75 65.183594 228.84375 66.339844 231.878906 67.628906 C 235.351562 69.109375 238.535156 71.066406 241.328125 73.667969 C 244.046875 76.203125 246.964844 78.515625 249.964844 80.734375 C 252.089844 82.308594 254.378906 83.25 256.96875 83.640625 C 260.585938 84.1875 263.972656 85.402344 267.066406 87.378906 C 268.515625 88.308594 269.230469 89.605469 269.148438 91.359375 C 269.058594 93.292969 268.148438 94.355469 266.105469 94.679688 C 266.242188 92.582031 265.414062 90.847656 264.03125 89.351562 C 262.652344 87.855469 260.957031 87.046875 258.695312 86.890625 C 259.070312 87.417969 259.296875 87.765625 259.554688 88.082031 C 260.269531 88.976562 260.757812 89.988281 260.980469 91.101562 C 261.105469 91.703125 261.113281 92.363281 261.023438 92.972656 C 260.898438 93.867188 260.3125 94.234375 259.4375 94.046875 C 259.03125 93.960938 258.601562 93.84375 258.257812 93.625 C 257.488281 93.140625 256.714844 92.640625 256.027344 92.046875 C 253.390625 89.78125 250.78125 87.488281 248.175781 85.183594 C 246.320312 83.539062 244.261719 82.210938 241.984375 81.238281 C 239.691406 80.257812 237.339844 80.003906 234.878906 80.59375 C 232.597656 81.144531 230.496094 82.089844 228.488281 83.25 C 225.792969 84.804688 223.558594 86.960938 221.277344 89.046875 C 221.113281 89.195312 221.015625 89.417969 220.761719 89.789062 C 222.210938 89.417969 223.457031 89.070312 224.714844 88.785156 C 226.9375 88.28125 229.160156 87.792969 231.398438 87.339844 C 232.066406 87.207031 232.777344 87.144531 233.449219 87.414062 C 233.425781 87.53125 233.046875 88.007812 232.863281 88.171875 C 231.007812 89.851562 229.3125 91.671875 228.058594 93.859375 C 227.578125 94.695312 227.113281 95.535156 227.011719 96.636719 C 227.449219 96.589844 227.789062 96.546875 228.128906 96.511719 C 229.664062 96.355469 231.199219 96.070312 232.738281 96.058594 C 236.851562 96.03125 240.964844 96.183594 245.042969 96.753906 C 247.019531 97.027344 249.035156 97.253906 250.9375 97.820312 C 253.253906 98.511719 255.578125 98.921875 257.980469 98.972656 C 258.5625 98.984375 259.078125 99.105469 259.535156 99.492188 C 260.082031 99.941406 260.703125 100.121094 261.40625 99.914062 C 262.3125 99.640625 263.234375 99.417969 264.121094 99.101562 C 265.945312 98.453125 267.75 97.808594 269.738281 97.847656 C 273.054688 97.917969 276.339844 98.226562 279.511719 99.242188 C 282.527344 100.207031 285.066406 101.949219 287.054688 104.410156 C 291.101562 109.429688 294.167969 115.089844 297.417969 120.621094 C 297.558594 120.863281 297.703125 121.113281 297.785156 121.378906 C 297.914062 121.773438 298.0625 122.183594 298.074219 122.589844 C 298.152344 125.019531 298.011719 127.429688 297.453125 129.800781 C 296.859375 132.339844 296.457031 132.808594 293.832031 133.097656 C 291.636719 133.339844 289.410156 133.5 287.210938 133.410156 C 282.71875 133.222656 278.238281 132.816406 273.75 132.550781 C 270.164062 132.335938 266.566406 132.398438 263.042969 133.121094 C 260.640625 133.609375 258.304688 134.402344 255.921875 135 C 255.1875 135.183594 254.394531 135.273438 253.644531 135.21875 C 250.679688 134.992188 248.058594 132.695312 248.277344 129.484375 C 248.320312 128.871094 248.492188 128.507812 249.101562 128.335938 C 250.519531 127.9375 251.921875 127.46875 253.34375 127.082031 C 258.320312 125.726562 263.355469 124.875 268.542969 125.480469 C 269.175781 125.554688 269.824219 125.582031 270.632812 125.441406 C 270.277344 125.171875 270.09375 125.011719 269.894531 124.886719 C 267.730469 123.511719 265.390625 122.527344 262.863281 122.175781 C 258.320312 121.546875 253.824219 121.808594 249.445312 123.320312 C 249.132812 123.429688 248.808594 123.507812 248.398438 123.625 C 248.660156 122.066406 249.28125 120.78125 249.90625 119.496094 C 250.332031 118.628906 250.980469 118.144531 251.972656 118.160156 C 252.253906 118.164062 252.535156 118.125 252.8125 118.085938 C 257.972656 117.351562 263.042969 117.855469 268.046875 119.234375 C 268.289062 119.300781 268.542969 119.34375 268.789062 119.394531 C 267.492188 117.929688 266.027344 116.753906 264.226562 116.066406 C 261.375 114.976562 258.386719 114.578125 255.359375 114.394531 C 254.605469 114.351562 253.84375 114.390625 253.078125 114.390625 C 253.097656 114.230469 253.085938 114.144531 253.117188 114.105469 C 253.25 113.941406 253.394531 113.789062 253.542969 113.640625 C 254.722656 112.488281 256.132812 111.730469 257.683594 111.199219 C 260.085938 110.378906 262.5625 110.523438 264.984375 110.917969 C 269.683594 111.691406 274.125 113.367188 278.542969 115.097656 C 280.722656 115.953125 282.902344 116.808594 285.082031 117.660156 Z M 96.101562 196.015625 C 95.714844 195.632812 93.316406 192.730469 92.472656 191.441406 C 90.261719 188.070312 88.132812 184.640625 85.941406 181.253906 C 82.566406 176.039062 80.027344 170.429688 78.03125 164.566406 C 76.707031 160.675781 75.710938 156.699219 74.902344 152.679688 C 74.148438 148.96875 73.472656 145.238281 73.03125 141.484375 C 72.652344 138.324219 72.585938 135.121094 72.507812 131.929688 C 72.449219 129.582031 72.484375 127.226562 72.65625 124.886719 C 72.957031 120.867188 73.367188 116.855469 73.796875 112.84375 C 74.0625 110.371094 74.371094 107.898438 74.789062 105.445312 C 75.375 101.996094 76.050781 98.554688 76.75 95.121094 C 77.917969 89.347656 79.253906 83.621094 81.515625 78.144531 C 83.5625 73.203125 86.074219 68.511719 89.015625 64.046875 C 89.804688 62.855469 90.675781 61.675781 91.691406 60.679688 C 94.5625 57.863281 98.128906 56.195312 101.914062 55.019531 C 104.617188 54.179688 107.449219 54.0625 110.257812 53.949219 C 117.636719 53.640625 125.015625 53.84375 132.390625 54.15625 C 132.726562 54.167969 133.058594 54.242188 133.425781 54.292969 C 133.425781 54.957031 133.425781 55.503906 133.425781 56.109375 C 133.089844 56.160156 132.78125 56.210938 132.472656 56.242188 C 128.21875 56.722656 123.933594 57.019531 119.746094 57.972656 C 117.695312 58.4375 115.652344 58.949219 113.625 59.511719 C 112.347656 59.871094 111.773438 60.875 111.730469 62.132812 C 111.703125 62.894531 111.785156 63.679688 111.949219 64.425781 C 112.761719 68.054688 114.746094 71.085938 117.167969 73.796875 C 119.902344 76.863281 122.910156 79.667969 126.003906 82.375 C 126.574219 82.875 127.160156 83.359375 127.847656 83.945312 C 124.957031 85.074219 122.257812 86.261719 119.472656 87.191406 C 113.742188 89.105469 108.632812 92.152344 103.703125 95.542969 C 99.785156 98.234375 96.5625 101.671875 93.703125 105.425781 C 89.199219 111.335938 85.820312 117.851562 83.617188 124.957031 C 83.117188 126.558594 82.738281 128.183594 82.503906 130.089844 C 83.082031 129.675781 83.492188 129.367188 83.914062 129.078125 C 86.25 127.457031 88.519531 125.730469 90.9375 124.25 C 94.382812 122.136719 98.011719 120.347656 101.769531 118.859375 C 106.203125 117.097656 110.644531 115.34375 115.117188 113.679688 C 118.832031 112.300781 126.59375 109.742188 126.808594 109.71875 C 126.738281 110.058594 125.980469 112.515625 125.597656 113.492188 C 124.582031 116.074219 123.6875 118.691406 123.046875 121.394531 C 121.878906 126.355469 120.964844 131.359375 120.90625 136.464844 C 120.890625 137.71875 120.53125 138.613281 119.605469 139.476562 C 115.539062 143.265625 112.332031 147.738281 109.53125 152.507812 C 108.5 154.261719 107.621094 156.097656 106.640625 157.878906 C 104.667969 161.453125 103.175781 165.234375 101.796875 169.058594 C 101.273438 170.503906 100.871094 172.003906 100.53125 173.5 C 100.121094 175.3125 99.855469 177.152344 99.496094 178.976562 C 98.390625 184.578125 97.265625 190.179688 96.101562 196.015625 Z M 236.519531 211.261719 C 238.054688 209.019531 239.765625 206.945312 240.644531 204.171875 C 239.398438 204.632812 238.320312 205.027344 237.246094 205.433594 C 233.328125 206.914062 229.3125 208.070312 225.152344 208.605469 C 220.671875 209.179688 216.246094 208.886719 211.917969 207.515625 C 211.660156 207.433594 211.414062 207.308594 211.164062 207.203125 C 212.804688 206.902344 214.378906 206.773438 215.945312 206.578125 C 217.960938 206.324219 219.824219 205.636719 221.535156 204.535156 C 223.960938 202.972656 225.691406 200.789062 227.066406 198.296875 C 227.175781 198.105469 227.246094 197.890625 227.421875 197.492188 C 224.867188 198.824219 222.488281 200 219.898438 200.691406 C 217.304688 201.382812 214.683594 201.804688 211.992188 201.886719 C 212.167969 201.667969 212.367188 201.542969 212.566406 201.414062 C 214.320312 200.242188 216.023438 199.011719 217.503906 197.492188 C 219.667969 195.273438 221.15625 192.707031 221.515625 189.574219 C 221.558594 189.191406 221.636719 188.808594 221.640625 188.425781 C 221.675781 184.53125 221.75 180.628906 220.988281 176.78125 C 220.570312 174.660156 220.511719 172.535156 220.621094 170.394531 C 220.664062 169.480469 220.714844 168.566406 220.835938 167.664062 C 221.085938 165.824219 221.324219 163.988281 222.046875 162.242188 C 223.820312 157.945312 226.152344 153.953125 228.621094 150.035156 C 228.960938 149.5 229.296875 148.957031 229.714844 148.488281 C 231.871094 146.078125 234.152344 143.789062 236.671875 141.757812 C 238.898438 139.960938 241.40625 138.617188 243.984375 137.394531 C 244.21875 137.285156 244.472656 137.207031 244.933594 137.03125 C 244.574219 137.492188 244.382812 137.78125 244.152344 138.03125 C 242.625 139.679688 241.109375 141.339844 239.554688 142.957031 C 237.769531 144.808594 236.171875 146.777344 234.898438 149.035156 C 232.707031 152.90625 231.035156 156.988281 229.75 161.21875 C 228.882812 164.070312 228.222656 166.984375 227.988281 169.96875 C 227.675781 173.980469 227.972656 177.953125 228.789062 181.894531 C 229.347656 184.570312 229.753906 187.277344 230.347656 189.941406 C 230.964844 192.75 232.527344 194.929688 235.097656 196.320312 C 237.050781 197.375 239.097656 198.210938 241.238281 198.796875 C 243.246094 199.347656 245.292969 199.625 247.378906 199.636719 C 248.066406 199.636719 248.753906 199.691406 249.53125 199.726562 C 249.246094 201.898438 248.507812 203.726562 247.285156 205.34375 C 246.097656 206.917969 244.46875 207.976562 242.796875 208.953125 C 240.851562 210.089844 238.769531 210.886719 236.519531 211.261719 Z M 233.488281 178.1875 C 233.382812 177.03125 233.273438 175.914062 233.179688 174.800781 C 232.863281 171.078125 233.011719 167.382812 233.796875 163.714844 C 235.304688 156.679688 239.144531 151.070312 244.351562 146.273438 C 244.59375 146.054688 244.878906 145.882812 245.195312 145.644531 C 245.84375 147.609375 245.828125 149.425781 245.390625 151.28125 C 244.636719 154.5 243.527344 157.589844 242.199219 160.613281 C 241.644531 161.882812 241.21875 163.203125 240.734375 164.496094 C 240.96875 164.511719 245.609375 159.175781 247.503906 156.296875 C 249.8125 152.777344 250.492188 149.015625 249.089844 144.964844 C 249.039062 144.824219 252.859375 147.042969 252.910156 149.140625 C 252.96875 151.523438 252.390625 153.738281 251.34375 155.828125 C 249.871094 158.757812 247.691406 161.21875 245.804688 163.878906 C 243.777344 166.734375 241.792969 169.628906 239.902344 172.578125 C 238.773438 174.34375 237.851562 176.242188 236.78125 178.1875 C 235.773438 178.1875 234.664062 178.1875 233.488281 178.1875 Z M 228.878906 61.328125 C 228.65625 61.242188 228.429688 61.164062 228.210938 61.066406 C 224.683594 59.488281 221.050781 58.191406 217.339844 57.117188 C 212.8125 55.808594 208.191406 54.964844 203.515625 54.402344 C 200.660156 54.058594 197.792969 53.785156 194.929688 53.53125 C 193.664062 53.421875 193.027344 52.984375 192.753906 51.703125 C 192.203125 49.109375 192.5 43.769531 192.550781 43.726562 C 193.476562 44.035156 194.382812 44.421875 195.328125 44.648438 C 199.28125 45.597656 203.273438 46.402344 207.203125 47.453125 C 210.140625 48.238281 213.066406 49.175781 215.886719 50.308594 C 219.964844 51.949219 223.234375 54.792969 226.246094 57.921875 C 227.238281 58.953125 228.945312 61.269531 228.878906 61.328125 Z M 250.980469 189.113281 C 256.195312 187.96875 261.507812 187.289062 266.664062 185.785156 C 266.570312 186.023438 263.316406 189.308594 261.726562 190.691406 C 259.695312 192.457031 257.390625 193.78125 254.710938 194.359375 C 252.46875 194.847656 250.191406 194.9375 247.90625 194.886719 C 245.417969 194.832031 243.027344 194.324219 240.761719 193.300781 C 238.234375 192.15625 236.226562 190.511719 235.4375 187.707031 C 235.191406 186.828125 234.824219 185.988281 234.597656 185.109375 C 234.359375 184.167969 234.21875 183.203125 234.007812 182.097656 C 240.84375 182.128906 247.371094 180.503906 254.117188 179.972656 C 252.257812 182.375 249.851562 184 247.441406 185.636719 C 244.988281 187.304688 242.195312 188.1875 239.367188 189.175781 C 242.664062 191.792969 253.679688 193.257812 258.113281 190.609375 C 255.65625 190.175781 250.960938 189.191406 250.980469 189.113281 Z M 275.746094 138.558594 C 275.71875 138.5625 275.851562 138.511719 275.988281 138.5 C 279.523438 138.265625 283.0625 138.003906 286.601562 137.800781 C 289.089844 137.65625 291.582031 137.625 294.050781 138.136719 C 296.5 138.644531 298.371094 139.902344 299.453125 142.21875 C 299.65625 142.65625 299.742188 143.050781 299.480469 143.503906 C 298.84375 144.597656 298.1875 145.671875 297.257812 146.554688 C 295.601562 148.140625 293.75 149.46875 291.746094 150.574219 C 290.519531 151.253906 287.769531 151.71875 287.792969 151.675781 C 288.921875 149.617188 290.066406 147.566406 291.183594 145.5 C 291.394531 145.097656 291.65625 144.972656 292.101562 144.984375 C 293.292969 145.011719 296.105469 144.886719 296.402344 144.808594 C 295.621094 143.945312 294.78125 143.410156 293.851562 142.96875 C 290.761719 141.503906 287.492188 141.371094 284.164062 141.625 C 283.375 141.6875 282.71875 142 282.085938 142.503906 C 279.371094 144.664062 276.621094 146.789062 273.871094 148.902344 C 272.167969 150.210938 267.515625 152.5625 266.984375 152.535156 C 269.910156 147.863281 272.792969 143.269531 275.746094 138.558594 Z M 247.542969 128.597656 C 242.039062 130.339844 236.691406 132.363281 231.472656 134.683594 C 226.25 137.007812 221.140625 139.582031 215.980469 142.042969 C 225.042969 133.371094 236 128.097656 247.792969 124.144531 C 247.707031 125.6875 247.628906 127.078125 247.542969 128.597656 Z M 222.671875 123.648438 C 223.035156 123.375 223.207031 123.210938 223.40625 123.105469 C 224.832031 122.355469 226.230469 121.53125 227.707031 120.894531 C 234.734375 117.859375 242.070312 115.914062 249.632812 114.800781 C 250.269531 114.707031 250.914062 114.667969 251.695312 114.59375 C 251.210938 115.511719 250.785156 116.269531 250.410156 117.054688 C 250.1875 117.527344 249.851562 117.695312 249.351562 117.75 C 248.164062 117.890625 246.972656 118.019531 245.8125 118.273438 C 239.824219 119.59375 233.835938 120.929688 227.855469 122.292969 C 226.1875 122.671875 224.550781 123.152344 222.671875 123.648438 Z M 301.367188 116.746094 C 301.367188 115.359375 301.324219 113.972656 301.378906 112.589844 C 301.421875 111.515625 301.0625 110.683594 300.226562 110.03125 C 299.867188 109.75 299.535156 109.433594 299.167969 109.164062 C 297.308594 107.792969 293.253906 104.769531 292.949219 104.496094 C 293.777344 104.605469 294.425781 104.605469 295.019531 104.78125 C 297.433594 105.503906 299.863281 106.191406 302.222656 107.0625 C 303.917969 107.6875 305.253906 108.933594 306.523438 110.203125 C 306.910156 110.59375 307 111.050781 306.691406 111.539062 C 306.539062 111.777344 306.40625 112.027344 306.21875 112.230469 C 304.726562 113.808594 301.488281 116.816406 301.367188 116.746094 Z M 253.996094 95.304688 C 249.144531 93.292969 244.289062 92.441406 239.199219 92.414062 C 239.285156 92.152344 239.324219 91.988281 239.390625 91.835938 C 240.523438 89.308594 243.230469 88.0625 245.941406 88.808594 C 248.085938 89.402344 249.894531 90.578125 251.527344 92.046875 C 252.492188 92.914062 253.226562 93.957031 253.996094 95.304688 Z M 302.355469 138.109375 C 301.824219 137.050781 301.398438 136.128906 300.902344 135.246094 C 300.621094 134.742188 300.617188 134.332031 300.851562 133.789062 C 301.796875 131.59375 302.542969 129.328125 302.433594 126.898438 C 302.382812 125.671875 303.207031 125.09375 304.027344 124.195312 C 305.140625 129.128906 305.441406 133.726562 302.355469 138.109375 " fill-opacity="1" fill-rule="evenodd"/></g><path fill="#111b1e" d="M 154.886719 59.550781 C 157.648438 60.59375 160.363281 61.730469 162.929688 63.203125 C 163.257812 63.394531 163.578125 63.597656 164 63.855469 C 162.101562 66.113281 160.265625 68.300781 158.289062 70.648438 C 160.324219 70.917969 162.148438 71.105469 163.984375 71.136719 C 165.839844 71.171875 167.695312 71.144531 169.625 71.144531 C 169.933594 74.6875 170.671875 78.011719 171.519531 81.46875 C 172.160156 81.074219 172.648438 80.746094 173.164062 80.464844 C 176.121094 78.851562 179.046875 77.179688 182.054688 75.664062 C 185.394531 73.988281 188.953125 73.363281 192.6875 73.851562 C 193.519531 73.960938 194.351562 74 195.425781 74.089844 C 195.046875 73.691406 194.84375 73.414062 194.582031 73.214844 C 193.296875 72.238281 192.03125 71.238281 190.695312 70.328125 C 189.609375 69.585938 188.324219 69.292969 187.027344 69.121094 C 185.738281 68.949219 184.453125 68.78125 183.160156 68.664062 C 182.671875 68.621094 182.425781 68.34375 182.144531 68.019531 C 181.039062 66.75 179.949219 65.464844 178.796875 64.242188 C 175.882812 61.140625 172.238281 59.257812 168.234375 57.972656 C 161.890625 55.9375 155.363281 55.527344 148.769531 55.652344 C 148.636719 55.652344 148.507812 55.691406 148.378906 55.710938 C 148.347656 55.78125 152.902344 58.800781 154.886719 59.550781 " fill-opacity="1" fill-rule="evenodd"/><path fill="#111b1e" d="M 268.574219 101.152344 C 270.9375 102.472656 273.644531 103.050781 275.660156 105.027344 C 273.421875 104.828125 271.191406 104.585938 268.933594 105.070312 C 277.03125 107.269531 284.085938 111.523438 291.09375 116.335938 C 290.96875 115.945312 286.183594 108.75 283.242188 105.796875 C 281.09375 103.644531 278.480469 102.378906 275.527344 101.726562 C 273.566406 101.289062 271.585938 101.046875 269.574219 101.089844 C 269.242188 101.097656 268.90625 101.128906 268.574219 101.152344 " fill-opacity="1" fill-rule="evenodd"/><g fill="#e26400" fill-opacity="1"><g transform="translate(66.679688, 295.913712)"><g><path d="M 15.203125 -12.296875 L 22.328125 -15.859375 L 22.328125 -6.140625 C 22.328125 -4.421875 21.753906 -2.96875 20.609375 -1.78125 C 19.460938 -0.59375 18.09375 0 16.5 0 L 8.40625 0 C 6.8125 0 5.441406 -0.601562 4.296875 -1.8125 C 3.160156 -3.019531 2.59375 -4.460938 2.59375 -6.140625 L 2.59375 -38.828125 C 2.59375 -40.546875 3.160156 -42 4.296875 -43.1875 C 5.441406 -44.375 6.8125 -44.96875 8.40625 -44.96875 L 16.5 -44.96875 C 18.09375 -44.96875 19.460938 -44.375 20.609375 -43.1875 C 21.753906 -42 22.328125 -40.546875 22.328125 -38.828125 L 22.328125 -34.9375 L 15.203125 -31.375 L 15.203125 -38.171875 L 9.703125 -38.171875 L 9.703125 -6.796875 L 15.203125 -6.796875 Z M 15.203125 -12.296875 "/></g></g></g><g fill="#e26400" fill-opacity="1"><g transform="translate(90.941882, 295.913712)"><g><path d="M 18.765625 0 L 11.328125 -16.828125 L 9.703125 -15.984375 L 9.703125 0 L 2.59375 0 L 2.59375 -44.96875 L 16.5 -44.96875 C 18.09375 -44.96875 19.460938 -44.375 20.609375 -43.1875 C 21.753906 -42 22.328125 -40.546875 22.328125 -38.828125 L 22.328125 -22.453125 L 17.59375 -20.0625 L 26.53125 0 Z M 15.203125 -26.859375 L 15.203125 -38.171875 L 9.703125 -38.171875 L 9.703125 -23.9375 Z M 15.203125 -26.859375 "/></g></g></g><g fill="#e26400" fill-opacity="1"><g transform="translate(115.851067, 295.913712)"><g><path d="M 2.59375 -44.96875 L 9.703125 -44.96875 L 9.703125 -26.078125 L 15.203125 -28.984375 L 15.203125 -44.96875 L 22.328125 -44.96875 L 22.328125 -6.140625 C 22.328125 -4.421875 21.753906 -2.96875 20.609375 -1.78125 C 19.460938 -0.59375 18.09375 0 16.5 0 L 8.40625 0 C 6.8125 0 5.441406 -0.601562 4.296875 -1.8125 C 3.160156 -3.019531 2.59375 -4.460938 2.59375 -6.140625 L 2.59375 -8.40625 L 9.703125 -11.96875 L 9.703125 -6.796875 L 15.203125 -6.796875 L 15.203125 -21.03125 L 2.59375 -14.5625 Z M 2.59375 -44.96875 "/></g></g></g><g fill="#e26400" fill-opacity="1"><g transform="translate(140.760253, 295.913712)"><g><path d="M 15.203125 -26.203125 L 15.203125 -38.171875 L 9.703125 -38.171875 L 9.703125 -23.296875 Z M 9.703125 0 L 2.59375 0 L 2.59375 -44.96875 L 16.5 -44.96875 C 18.09375 -44.96875 19.460938 -44.375 20.609375 -43.1875 C 21.753906 -42 22.328125 -40.546875 22.328125 -38.828125 L 22.328125 -21.8125 L 9.703125 -15.328125 Z M 9.703125 0 "/></g></g></g><g fill="#e26400" fill-opacity="1"><g transform="translate(165.022447, 295.913712)"><g><path d="M 8.09375 0 L 8.09375 -38.171875 L 0.96875 -38.171875 L 0.96875 -44.96875 L 22.328125 -44.96875 L 22.328125 -38.171875 L 15.203125 -38.171875 L 15.203125 0 Z M 8.09375 0 "/></g></g></g><g fill="#e26400" fill-opacity="1"><g transform="translate(188.314148, 295.913712)"><g><path d="M 22.328125 -38.828125 L 22.328125 -6.140625 C 22.328125 -4.421875 21.753906 -2.96875 20.609375 -1.78125 C 19.460938 -0.59375 18.09375 0 16.5 0 L 8.40625 0 C 6.8125 0 5.441406 -0.601562 4.296875 -1.8125 C 3.160156 -3.019531 2.59375 -4.460938 2.59375 -6.140625 L 2.59375 -38.828125 C 2.59375 -40.546875 3.160156 -42 4.296875 -43.1875 C 5.441406 -44.375 6.8125 -44.96875 8.40625 -44.96875 L 16.5 -44.96875 C 18.09375 -44.96875 19.460938 -44.375 20.609375 -43.1875 C 21.753906 -42 22.328125 -40.546875 22.328125 -38.828125 Z M 15.203125 -6.796875 L 15.203125 -38.171875 L 9.703125 -38.171875 L 9.703125 -6.796875 Z M 15.203125 -6.796875 "/></g></g></g><g fill="#e26400" fill-opacity="1"><g transform="translate(213.223334, 295.913712)"><g><path d="M 16.046875 0 L 7.703125 0 L -0.265625 -44.96875 L 6.984375 -44.96875 L 11.84375 -16.4375 L 16.75 -44.96875 L 24 -44.96875 Z M 16.046875 0 "/></g></g></g><g fill="#e26400" fill-opacity="1"><g transform="translate(236.838536, 295.913712)"><g><path d="M 22.328125 -38.828125 L 22.328125 -6.140625 C 22.328125 -4.421875 21.753906 -2.96875 20.609375 -1.78125 C 19.460938 -0.59375 18.09375 0 16.5 0 L 8.40625 0 C 6.8125 0 5.441406 -0.601562 4.296875 -1.8125 C 3.160156 -3.019531 2.59375 -4.460938 2.59375 -6.140625 L 2.59375 -38.828125 C 2.59375 -40.546875 3.160156 -42 4.296875 -43.1875 C 5.441406 -44.375 6.8125 -44.96875 8.40625 -44.96875 L 16.5 -44.96875 C 18.09375 -44.96875 19.460938 -44.375 20.609375 -43.1875 C 21.753906 -42 22.328125 -40.546875 22.328125 -38.828125 Z M 15.203125 -6.796875 L 15.203125 -38.171875 L 9.703125 -38.171875 L 9.703125 -6.796875 Z M 15.203125 -6.796875 "/></g></g></g><g fill="#e26400" fill-opacity="1"><g transform="translate(261.747722, 295.913712)"><g><path d="M 18.765625 0 L 11.328125 -16.828125 L 9.703125 -15.984375 L 9.703125 0 L 2.59375 0 L 2.59375 -44.96875 L 16.5 -44.96875 C 18.09375 -44.96875 19.460938 -44.375 20.609375 -43.1875 C 21.753906 -42 22.328125 -40.546875 22.328125 -38.828125 L 22.328125 -22.453125 L 17.59375 -20.0625 L 26.53125 0 Z M 15.203125 -26.859375 L 15.203125 -38.171875 L 9.703125 -38.171875 L 9.703125 -23.9375 Z M 15.203125 -26.859375 "/></g></g></g><g fill="#e26400" fill-opacity="1"><g transform="translate(286.656907, 295.913712)"><g><path d="M 19.734375 -38.171875 L 9.703125 -38.171875 L 9.703125 -26.078125 L 19.734375 -31.25 L 19.734375 -23.296875 L 9.703125 -18.109375 L 9.703125 -6.796875 L 19.734375 -6.796875 L 19.734375 0 L 2.59375 0 L 2.59375 -38.828125 C 2.59375 -40.546875 3.160156 -42 4.296875 -43.1875 C 5.441406 -44.375 6.8125 -44.96875 8.40625 -44.96875 L 19.734375 -44.96875 Z M 19.734375 -38.171875 "/></g></g></g><g fill="#111b1e" fill-opacity="1"><g transform="translate(142.12556, 324.864161)"><g><path d="M 0.59375 0 L 0.59375 -10.40625 L 2.25 -10.40625 L 2.25 -1.578125 L 4.640625 -1.578125 L 4.640625 0 Z M 0.59375 0 "/></g></g></g><g fill="#111b1e" fill-opacity="1"><g transform="translate(147.73638, 324.864161)"><g><path d="M 4.5625 -8.828125 L 2.25 -8.828125 L 2.25 -6.03125 L 4.5625 -7.234375 L 4.5625 -5.390625 L 2.25 -4.1875 L 2.25 -1.578125 L 4.5625 -1.578125 L 4.5625 0 L 0.59375 0 L 0.59375 -8.984375 C 0.59375 -9.378906 0.722656 -9.710938 0.984375 -9.984375 C 1.253906 -10.265625 1.578125 -10.40625 1.953125 -10.40625 L 4.5625 -10.40625 Z M 4.5625 -8.828125 "/></g></g></g><g fill="#111b1e" fill-opacity="1"><g transform="translate(153.496817, 324.864161)"><g><path d="M 1.875 0 L 1.875 -8.828125 L 0.21875 -8.828125 L 0.21875 -10.40625 L 5.171875 -10.40625 L 5.171875 -8.828125 L 3.515625 -8.828125 L 3.515625 0 Z M 1.875 0 "/></g></g></g><g fill="#111b1e" fill-opacity="1"><g transform="translate(159.63131, 324.864161)"><g><path d="M 1.71875 -7.265625 L 0.59375 -7.265625 L 0.59375 -10.40625 L 1.71875 -10.40625 Z M 1.71875 -7.265625 "/></g></g></g><g fill="#111b1e" fill-opacity="1"><g transform="translate(162.698557, 324.864161)"><g><path d="M 0.59375 -8.984375 C 0.59375 -9.390625 0.722656 -9.726562 0.984375 -10 C 1.253906 -10.269531 1.578125 -10.40625 1.953125 -10.40625 L 3.8125 -10.40625 C 4.1875 -10.40625 4.503906 -10.265625 4.765625 -9.984375 C 5.035156 -9.710938 5.171875 -9.378906 5.171875 -8.984375 L 5.171875 -8.53125 L 3.515625 -7.703125 L 3.515625 -8.828125 L 2.25 -8.828125 L 2.25 -6.0625 L 5.171875 -7.5625 L 5.171875 -1.421875 C 5.171875 -1.035156 5.035156 -0.703125 4.765625 -0.421875 C 4.503906 -0.140625 4.1875 0 3.8125 0 L 1.953125 0 C 1.578125 0 1.253906 -0.132812 0.984375 -0.40625 C 0.722656 -0.6875 0.59375 -1.023438 0.59375 -1.421875 L 0.59375 -2.390625 L 2.25 -3.21875 L 2.25 -1.578125 L 3.515625 -1.578125 L 3.515625 -4.859375 L 0.59375 -3.375 Z M 0.59375 -8.984375 "/></g></g></g><g fill="#111b1e" fill-opacity="1"><g transform="translate(169.207104, 324.864161)"><g/></g></g><g fill="#111b1e" fill-opacity="1"><g transform="translate(172.798033, 324.864161)"><g><path d="M 1.875 0 L 1.875 -8.828125 L 0.21875 -8.828125 L 0.21875 -10.40625 L 5.171875 -10.40625 L 5.171875 -8.828125 L 3.515625 -8.828125 L 3.515625 0 Z M 1.875 0 "/></g></g></g><g fill="#111b1e" fill-opacity="1"><g transform="translate(178.932524, 324.864161)"><g><path d="M 0.59375 0 L 0.59375 -8.984375 C 0.59375 -9.378906 0.722656 -9.710938 0.984375 -9.984375 C 1.253906 -10.265625 1.578125 -10.40625 1.953125 -10.40625 L 3.8125 -10.40625 C 4.1875 -10.40625 4.503906 -10.265625 4.765625 -9.984375 C 5.035156 -9.710938 5.171875 -9.378906 5.171875 -8.984375 L 5.171875 0 L 3.515625 0 L 3.515625 -4.421875 L 2.25 -3.734375 L 2.25 0 Z M 2.25 -5.578125 L 3.515625 -6.25 L 3.515625 -8.828125 L 2.25 -8.828125 Z M 2.25 -5.578125 "/></g></g></g><g fill="#111b1e" fill-opacity="1"><g transform="translate(185.441071, 324.864161)"><g><path d="M 0.59375 0 L 0.59375 -10.40625 L 2.25 -10.40625 L 2.25 -1.578125 L 4.640625 -1.578125 L 4.640625 0 Z M 0.59375 0 "/></g></g></g><g fill="#111b1e" fill-opacity="1"><g transform="translate(191.05189, 324.864161)"><g><path d="M 6.359375 0 L 4.609375 0 L 2.953125 -4.25 L 2.25 -2.796875 L 2.25 0 L 0.59375 0 L 0.59375 -10.40625 L 2.25 -10.40625 L 2.25 -6.46875 L 4.015625 -10.40625 L 5.8125 -10.40625 L 3.84375 -6.1875 Z M 6.359375 0 "/></g></g></g><g fill="#111b1e" fill-opacity="1"><g transform="translate(197.859678, 324.864161)"><g/></g></g><g fill="#111b1e" fill-opacity="1"><g transform="translate(201.450606, 324.864161)"><g><path d="M 0.59375 0 L 0.59375 -8.984375 C 0.59375 -9.378906 0.722656 -9.710938 0.984375 -9.984375 C 1.253906 -10.265625 1.578125 -10.40625 1.953125 -10.40625 L 3.8125 -10.40625 C 4.1875 -10.40625 4.503906 -10.265625 4.765625 -9.984375 C 5.035156 -9.710938 5.171875 -9.378906 5.171875 -8.984375 L 5.171875 0 L 3.515625 0 L 3.515625 -4.421875 L 2.25 -3.734375 L 2.25 0 Z M 2.25 -5.578125 L 3.515625 -6.25 L 3.515625 -8.828125 L 2.25 -8.828125 Z M 2.25 -5.578125 "/></g></g></g><g fill="#111b1e" fill-opacity="1"><g transform="translate(207.959156, 324.864161)"><g><path d="M 0.59375 0 L 0.59375 -10.40625 L 3.8125 -10.40625 C 4.1875 -10.40625 4.503906 -10.265625 4.765625 -9.984375 C 5.035156 -9.710938 5.171875 -9.378906 5.171875 -8.984375 L 5.171875 -6.734375 C 5.171875 -6.398438 5.109375 -6.117188 4.984375 -5.890625 C 4.898438 -5.722656 4.773438 -5.582031 4.609375 -5.46875 L 5.171875 -5.46875 L 5.171875 -1.421875 C 5.171875 -1.023438 5.035156 -0.6875 4.765625 -0.40625 C 4.503906 -0.132812 4.1875 0 3.8125 0 Z M 3.515625 -6.734375 L 3.515625 -8.828125 L 2.25 -8.828125 L 2.25 -6.0625 Z M 3.515625 -4.875 L 2.25 -4.21875 L 2.25 -1.578125 L 3.515625 -1.578125 Z M 3.515625 -4.875 "/></g></g></g><g fill="#111b1e" fill-opacity="1"><g transform="translate(214.467706, 324.864161)"><g><path d="M 5.171875 -8.984375 L 5.171875 -1.421875 C 5.171875 -1.023438 5.035156 -0.6875 4.765625 -0.40625 C 4.503906 -0.132812 4.1875 0 3.8125 0 L 1.953125 0 C 1.578125 0 1.253906 -0.140625 0.984375 -0.421875 C 0.722656 -0.703125 0.59375 -1.035156 0.59375 -1.421875 L 0.59375 -8.984375 C 0.59375 -9.378906 0.722656 -9.710938 0.984375 -9.984375 C 1.253906 -10.265625 1.578125 -10.40625 1.953125 -10.40625 L 3.8125 -10.40625 C 4.1875 -10.40625 4.503906 -10.265625 4.765625 -9.984375 C 5.035156 -9.710938 5.171875 -9.378906 5.171875 -8.984375 Z M 3.515625 -1.578125 L 3.515625 -8.828125 L 2.25 -8.828125 L 2.25 -1.578125 Z M 3.515625 -1.578125 "/></g></g></g><g fill="#111b1e" fill-opacity="1"><g transform="translate(220.976255, 324.864161)"><g><path d="M 5.171875 -10.40625 L 5.171875 -1.421875 C 5.171875 -1.023438 5.035156 -0.6875 4.765625 -0.40625 C 4.503906 -0.132812 4.1875 0 3.8125 0 L 1.953125 0 C 1.578125 0 1.253906 -0.140625 0.984375 -0.421875 C 0.722656 -0.703125 0.59375 -1.035156 0.59375 -1.421875 L 0.59375 -10.40625 L 2.25 -10.40625 L 2.25 -1.578125 L 3.515625 -1.578125 L 3.515625 -10.40625 Z M 5.171875 -10.40625 "/></g></g></g><g fill="#111b1e" fill-opacity="1"><g transform="translate(227.484805, 324.864161)"><g><path d="M 1.875 0 L 1.875 -8.828125 L 0.21875 -8.828125 L 0.21875 -10.40625 L 5.171875 -10.40625 L 5.171875 -8.828125 L 3.515625 -8.828125 L 3.515625 0 Z M 1.875 0 "/></g></g></g></svg>